<mxfile host="app.diagrams.net" modified="2023-12-05T12:10:13.889Z" agent="Mozilla/5.0 (Windows NT 10.0; Win64; x64) AppleWebKit/537.36 (KHTML, like Gecko) Chrome/119.0.0.0 Safari/537.36" etag="nnnZxR3scg1Yg-2d2ELQ" version="22.1.5" type="device">
  <diagram id="1C0KFWOz3Z1hnWo1IfDT" name="Deep Convolutional Network (DCN)">
    <mxGraphModel dx="4406" dy="1338" grid="1" gridSize="10" guides="1" tooltips="1" connect="1" arrows="1" fold="1" page="1" pageScale="1" pageWidth="1100" pageHeight="850" math="0" shadow="0">
      <root>
        <mxCell id="0" />
        <mxCell id="1" parent="0" />
        <mxCell id="8ngV8dPodzn89XrmvqAj-7" value="" style="rounded=0;whiteSpace=wrap;html=1;fillColor=#f8cecc;strokeColor=#b85450;" vertex="1" parent="1">
          <mxGeometry x="-1530" y="270" width="150" height="84" as="geometry" />
        </mxCell>
        <mxCell id="8ngV8dPodzn89XrmvqAj-6" value="" style="endArrow=none;html=1;rounded=0;fillColor=#f8cecc;strokeColor=#b85450;" edge="1" parent="1" source="8ngV8dPodzn89XrmvqAj-8" target="8ngV8dPodzn89XrmvqAj-95">
          <mxGeometry width="50" height="50" relative="1" as="geometry">
            <mxPoint x="-1456" y="240" as="sourcePoint" />
            <mxPoint x="-1550.37851943447" y="286.87266063793356" as="targetPoint" />
          </mxGeometry>
        </mxCell>
        <mxCell id="8ngV8dPodzn89XrmvqAj-8" value="" style="ellipse;whiteSpace=wrap;html=1;aspect=fixed;strokeColor=#b85450;fillColor=#f8cecc;" vertex="1" parent="1">
          <mxGeometry x="-1524" y="279" width="30" height="30" as="geometry" />
        </mxCell>
        <mxCell id="8ngV8dPodzn89XrmvqAj-9" value="" style="ellipse;whiteSpace=wrap;html=1;aspect=fixed;strokeColor=#b85450;fillColor=#f8cecc;" vertex="1" parent="1">
          <mxGeometry x="-1420" y="279" width="30" height="30" as="geometry" />
        </mxCell>
        <mxCell id="8ngV8dPodzn89XrmvqAj-10" value="" style="ellipse;whiteSpace=wrap;html=1;aspect=fixed;strokeColor=#b85450;fillColor=#f8cecc;" vertex="1" parent="1">
          <mxGeometry x="-1524" y="318" width="30" height="30" as="geometry" />
        </mxCell>
        <mxCell id="8ngV8dPodzn89XrmvqAj-11" value="" style="ellipse;whiteSpace=wrap;html=1;aspect=fixed;strokeColor=#b85450;fillColor=#f8cecc;" vertex="1" parent="1">
          <mxGeometry x="-1420" y="318" width="30" height="30" as="geometry" />
        </mxCell>
        <mxCell id="8ngV8dPodzn89XrmvqAj-12" value="" style="endArrow=none;html=1;rounded=0;fillColor=#f8cecc;strokeColor=#b85450;" edge="1" parent="1" source="8ngV8dPodzn89XrmvqAj-10" target="8ngV8dPodzn89XrmvqAj-95">
          <mxGeometry width="50" height="50" relative="1" as="geometry">
            <mxPoint x="-1514" y="302" as="sourcePoint" />
            <mxPoint x="-1554.6355744080452" y="295.8036879932955" as="targetPoint" />
          </mxGeometry>
        </mxCell>
        <mxCell id="8ngV8dPodzn89XrmvqAj-13" value="" style="endArrow=none;html=1;rounded=0;fillColor=#f8cecc;strokeColor=#b85450;" edge="1" parent="1" source="8ngV8dPodzn89XrmvqAj-8" target="8ngV8dPodzn89XrmvqAj-96">
          <mxGeometry width="50" height="50" relative="1" as="geometry">
            <mxPoint x="-1504" y="312" as="sourcePoint" />
            <mxPoint x="-1554.05050775248" y="328.9329499443104" as="targetPoint" />
          </mxGeometry>
        </mxCell>
        <mxCell id="8ngV8dPodzn89XrmvqAj-14" value="" style="endArrow=none;html=1;rounded=0;fillColor=#f8cecc;strokeColor=#b85450;" edge="1" parent="1" source="8ngV8dPodzn89XrmvqAj-10" target="8ngV8dPodzn89XrmvqAj-96">
          <mxGeometry width="50" height="50" relative="1" as="geometry">
            <mxPoint x="-1494" y="322" as="sourcePoint" />
            <mxPoint x="-1550.175441986345" y="338.3567255981793" as="targetPoint" />
          </mxGeometry>
        </mxCell>
        <mxCell id="8ngV8dPodzn89XrmvqAj-15" value="" style="endArrow=none;html=1;rounded=0;fillColor=#f8cecc;strokeColor=#b85450;" edge="1" parent="1" source="8ngV8dPodzn89XrmvqAj-9" target="8ngV8dPodzn89XrmvqAj-93">
          <mxGeometry width="50" height="50" relative="1" as="geometry">
            <mxPoint x="-1484" y="332" as="sourcePoint" />
            <mxPoint x="-1359.6656400997076" y="286.64178520364953" as="targetPoint" />
          </mxGeometry>
        </mxCell>
        <mxCell id="8ngV8dPodzn89XrmvqAj-16" value="" style="endArrow=none;html=1;rounded=0;fillColor=#f8cecc;strokeColor=#b85450;" edge="1" parent="1" source="8ngV8dPodzn89XrmvqAj-11" target="8ngV8dPodzn89XrmvqAj-93">
          <mxGeometry width="50" height="50" relative="1" as="geometry">
            <mxPoint x="-1474" y="342" as="sourcePoint" />
            <mxPoint x="-1355.8342944264225" y="295.2178197734738" as="targetPoint" />
          </mxGeometry>
        </mxCell>
        <mxCell id="8ngV8dPodzn89XrmvqAj-17" value="" style="endArrow=none;html=1;rounded=0;fillColor=#f8cecc;strokeColor=#b85450;" edge="1" parent="1" source="8ngV8dPodzn89XrmvqAj-9" target="8ngV8dPodzn89XrmvqAj-94">
          <mxGeometry width="50" height="50" relative="1" as="geometry">
            <mxPoint x="-1464" y="352" as="sourcePoint" />
            <mxPoint x="-1356.308610053092" y="329.42290027095316" as="targetPoint" />
          </mxGeometry>
        </mxCell>
        <mxCell id="8ngV8dPodzn89XrmvqAj-18" value="" style="endArrow=none;html=1;rounded=0;fillColor=#f8cecc;strokeColor=#b85450;" edge="1" parent="1" source="8ngV8dPodzn89XrmvqAj-11" target="8ngV8dPodzn89XrmvqAj-94">
          <mxGeometry width="50" height="50" relative="1" as="geometry">
            <mxPoint x="-1454" y="362" as="sourcePoint" />
            <mxPoint x="-1359.8493046644328" y="338.5494685599466" as="targetPoint" />
          </mxGeometry>
        </mxCell>
        <mxCell id="8ngV8dPodzn89XrmvqAj-19" value="" style="endArrow=none;html=1;rounded=0;fillColor=#f8cecc;strokeColor=#b85450;" edge="1" parent="1" source="8ngV8dPodzn89XrmvqAj-9" target="8ngV8dPodzn89XrmvqAj-8">
          <mxGeometry width="50" height="50" relative="1" as="geometry">
            <mxPoint x="-1444" y="372" as="sourcePoint" />
            <mxPoint x="-1470" y="367" as="targetPoint" />
          </mxGeometry>
        </mxCell>
        <mxCell id="8ngV8dPodzn89XrmvqAj-20" value="" style="endArrow=none;html=1;rounded=0;fillColor=#f8cecc;strokeColor=#b85450;" edge="1" parent="1" source="8ngV8dPodzn89XrmvqAj-11" target="8ngV8dPodzn89XrmvqAj-8">
          <mxGeometry width="50" height="50" relative="1" as="geometry">
            <mxPoint x="-1434" y="382" as="sourcePoint" />
            <mxPoint x="-1460" y="377" as="targetPoint" />
          </mxGeometry>
        </mxCell>
        <mxCell id="8ngV8dPodzn89XrmvqAj-21" value="" style="endArrow=none;html=1;rounded=0;fillColor=#f8cecc;strokeColor=#b85450;" edge="1" parent="1" source="8ngV8dPodzn89XrmvqAj-9" target="8ngV8dPodzn89XrmvqAj-10">
          <mxGeometry width="50" height="50" relative="1" as="geometry">
            <mxPoint x="-1424" y="392" as="sourcePoint" />
            <mxPoint x="-1450" y="387" as="targetPoint" />
          </mxGeometry>
        </mxCell>
        <mxCell id="8ngV8dPodzn89XrmvqAj-22" value="" style="endArrow=none;html=1;rounded=0;fillColor=#f8cecc;strokeColor=#b85450;" edge="1" parent="1" source="8ngV8dPodzn89XrmvqAj-11" target="8ngV8dPodzn89XrmvqAj-10">
          <mxGeometry width="50" height="50" relative="1" as="geometry">
            <mxPoint x="-1414" y="402" as="sourcePoint" />
            <mxPoint x="-1440" y="397" as="targetPoint" />
          </mxGeometry>
        </mxCell>
        <mxCell id="8ngV8dPodzn89XrmvqAj-93" value="" style="ellipse;whiteSpace=wrap;html=1;aspect=fixed;" vertex="1" parent="1">
          <mxGeometry x="-1356" y="279" width="30" height="30" as="geometry" />
        </mxCell>
        <mxCell id="8ngV8dPodzn89XrmvqAj-94" value="" style="ellipse;whiteSpace=wrap;html=1;aspect=fixed;" vertex="1" parent="1">
          <mxGeometry x="-1356" y="318" width="30" height="30" as="geometry" />
        </mxCell>
        <mxCell id="8ngV8dPodzn89XrmvqAj-95" value="" style="ellipse;whiteSpace=wrap;html=1;aspect=fixed;" vertex="1" parent="1">
          <mxGeometry x="-1584" y="279" width="30" height="30" as="geometry" />
        </mxCell>
        <mxCell id="8ngV8dPodzn89XrmvqAj-96" value="" style="ellipse;whiteSpace=wrap;html=1;aspect=fixed;" vertex="1" parent="1">
          <mxGeometry x="-1584" y="318" width="30" height="30" as="geometry" />
        </mxCell>
        <mxCell id="8ngV8dPodzn89XrmvqAj-98" value="" style="rounded=0;whiteSpace=wrap;html=1;fillColor=#dae8fc;strokeColor=#6c8ebf;" vertex="1" parent="1">
          <mxGeometry x="-1530" y="370" width="150" height="84" as="geometry" />
        </mxCell>
        <mxCell id="8ngV8dPodzn89XrmvqAj-99" value="" style="endArrow=none;html=1;rounded=0;fillColor=#dae8fc;strokeColor=#6c8ebf;" edge="1" parent="1" source="8ngV8dPodzn89XrmvqAj-100" target="8ngV8dPodzn89XrmvqAj-117">
          <mxGeometry width="50" height="50" relative="1" as="geometry">
            <mxPoint x="-1456" y="340" as="sourcePoint" />
            <mxPoint x="-1550.37851943447" y="386.87266063793356" as="targetPoint" />
          </mxGeometry>
        </mxCell>
        <mxCell id="8ngV8dPodzn89XrmvqAj-100" value="" style="ellipse;whiteSpace=wrap;html=1;aspect=fixed;strokeColor=#6c8ebf;fillColor=#dae8fc;" vertex="1" parent="1">
          <mxGeometry x="-1524" y="379" width="30" height="30" as="geometry" />
        </mxCell>
        <mxCell id="8ngV8dPodzn89XrmvqAj-101" value="" style="ellipse;whiteSpace=wrap;html=1;aspect=fixed;strokeColor=#6c8ebf;fillColor=#dae8fc;" vertex="1" parent="1">
          <mxGeometry x="-1420" y="379" width="30" height="30" as="geometry" />
        </mxCell>
        <mxCell id="8ngV8dPodzn89XrmvqAj-102" value="" style="ellipse;whiteSpace=wrap;html=1;aspect=fixed;strokeColor=#6c8ebf;fillColor=#dae8fc;" vertex="1" parent="1">
          <mxGeometry x="-1524" y="418" width="30" height="30" as="geometry" />
        </mxCell>
        <mxCell id="8ngV8dPodzn89XrmvqAj-103" value="" style="ellipse;whiteSpace=wrap;html=1;aspect=fixed;strokeColor=#6c8ebf;fillColor=#dae8fc;" vertex="1" parent="1">
          <mxGeometry x="-1420" y="418" width="30" height="30" as="geometry" />
        </mxCell>
        <mxCell id="8ngV8dPodzn89XrmvqAj-104" value="" style="endArrow=none;html=1;rounded=0;fillColor=#dae8fc;strokeColor=#6c8ebf;" edge="1" parent="1" source="8ngV8dPodzn89XrmvqAj-102" target="8ngV8dPodzn89XrmvqAj-117">
          <mxGeometry width="50" height="50" relative="1" as="geometry">
            <mxPoint x="-1514" y="402" as="sourcePoint" />
            <mxPoint x="-1554.6355744080452" y="395.8036879932955" as="targetPoint" />
          </mxGeometry>
        </mxCell>
        <mxCell id="8ngV8dPodzn89XrmvqAj-105" value="" style="endArrow=none;html=1;rounded=0;fillColor=#dae8fc;strokeColor=#6c8ebf;" edge="1" parent="1" source="8ngV8dPodzn89XrmvqAj-100" target="8ngV8dPodzn89XrmvqAj-118">
          <mxGeometry width="50" height="50" relative="1" as="geometry">
            <mxPoint x="-1504" y="412" as="sourcePoint" />
            <mxPoint x="-1554.05050775248" y="428.9329499443104" as="targetPoint" />
          </mxGeometry>
        </mxCell>
        <mxCell id="8ngV8dPodzn89XrmvqAj-106" value="" style="endArrow=none;html=1;rounded=0;fillColor=#dae8fc;strokeColor=#6c8ebf;" edge="1" parent="1" source="8ngV8dPodzn89XrmvqAj-102" target="8ngV8dPodzn89XrmvqAj-118">
          <mxGeometry width="50" height="50" relative="1" as="geometry">
            <mxPoint x="-1494" y="422" as="sourcePoint" />
            <mxPoint x="-1550.175441986345" y="438.3567255981793" as="targetPoint" />
          </mxGeometry>
        </mxCell>
        <mxCell id="8ngV8dPodzn89XrmvqAj-107" value="" style="endArrow=none;html=1;rounded=0;fillColor=#dae8fc;strokeColor=#6c8ebf;" edge="1" parent="1" source="8ngV8dPodzn89XrmvqAj-101" target="8ngV8dPodzn89XrmvqAj-115">
          <mxGeometry width="50" height="50" relative="1" as="geometry">
            <mxPoint x="-1484" y="432" as="sourcePoint" />
            <mxPoint x="-1359.6656400997076" y="386.64178520364953" as="targetPoint" />
          </mxGeometry>
        </mxCell>
        <mxCell id="8ngV8dPodzn89XrmvqAj-108" value="" style="endArrow=none;html=1;rounded=0;fillColor=#dae8fc;strokeColor=#6c8ebf;" edge="1" parent="1" source="8ngV8dPodzn89XrmvqAj-103" target="8ngV8dPodzn89XrmvqAj-115">
          <mxGeometry width="50" height="50" relative="1" as="geometry">
            <mxPoint x="-1474" y="442" as="sourcePoint" />
            <mxPoint x="-1355.8342944264225" y="395.2178197734738" as="targetPoint" />
          </mxGeometry>
        </mxCell>
        <mxCell id="8ngV8dPodzn89XrmvqAj-109" value="" style="endArrow=none;html=1;rounded=0;fillColor=#dae8fc;strokeColor=#6c8ebf;" edge="1" parent="1" source="8ngV8dPodzn89XrmvqAj-101" target="8ngV8dPodzn89XrmvqAj-116">
          <mxGeometry width="50" height="50" relative="1" as="geometry">
            <mxPoint x="-1464" y="452" as="sourcePoint" />
            <mxPoint x="-1356.308610053092" y="429.42290027095316" as="targetPoint" />
          </mxGeometry>
        </mxCell>
        <mxCell id="8ngV8dPodzn89XrmvqAj-110" value="" style="endArrow=none;html=1;rounded=0;fillColor=#dae8fc;strokeColor=#6c8ebf;" edge="1" parent="1" source="8ngV8dPodzn89XrmvqAj-103" target="8ngV8dPodzn89XrmvqAj-116">
          <mxGeometry width="50" height="50" relative="1" as="geometry">
            <mxPoint x="-1454" y="462" as="sourcePoint" />
            <mxPoint x="-1359.8493046644328" y="438.5494685599466" as="targetPoint" />
          </mxGeometry>
        </mxCell>
        <mxCell id="8ngV8dPodzn89XrmvqAj-111" value="" style="endArrow=none;html=1;rounded=0;fillColor=#dae8fc;strokeColor=#6c8ebf;" edge="1" parent="1" source="8ngV8dPodzn89XrmvqAj-101" target="8ngV8dPodzn89XrmvqAj-100">
          <mxGeometry width="50" height="50" relative="1" as="geometry">
            <mxPoint x="-1444" y="472" as="sourcePoint" />
            <mxPoint x="-1470" y="467" as="targetPoint" />
          </mxGeometry>
        </mxCell>
        <mxCell id="8ngV8dPodzn89XrmvqAj-112" value="" style="endArrow=none;html=1;rounded=0;fillColor=#dae8fc;strokeColor=#6c8ebf;" edge="1" parent="1" source="8ngV8dPodzn89XrmvqAj-103" target="8ngV8dPodzn89XrmvqAj-100">
          <mxGeometry width="50" height="50" relative="1" as="geometry">
            <mxPoint x="-1434" y="482" as="sourcePoint" />
            <mxPoint x="-1460" y="477" as="targetPoint" />
          </mxGeometry>
        </mxCell>
        <mxCell id="8ngV8dPodzn89XrmvqAj-113" value="" style="endArrow=none;html=1;rounded=0;fillColor=#dae8fc;strokeColor=#6c8ebf;" edge="1" parent="1" source="8ngV8dPodzn89XrmvqAj-101" target="8ngV8dPodzn89XrmvqAj-102">
          <mxGeometry width="50" height="50" relative="1" as="geometry">
            <mxPoint x="-1424" y="492" as="sourcePoint" />
            <mxPoint x="-1450" y="487" as="targetPoint" />
          </mxGeometry>
        </mxCell>
        <mxCell id="8ngV8dPodzn89XrmvqAj-114" value="" style="endArrow=none;html=1;rounded=0;fillColor=#dae8fc;strokeColor=#6c8ebf;" edge="1" parent="1" source="8ngV8dPodzn89XrmvqAj-103" target="8ngV8dPodzn89XrmvqAj-102">
          <mxGeometry width="50" height="50" relative="1" as="geometry">
            <mxPoint x="-1414" y="502" as="sourcePoint" />
            <mxPoint x="-1440" y="497" as="targetPoint" />
          </mxGeometry>
        </mxCell>
        <mxCell id="8ngV8dPodzn89XrmvqAj-115" value="" style="ellipse;whiteSpace=wrap;html=1;aspect=fixed;" vertex="1" parent="1">
          <mxGeometry x="-1356" y="379" width="30" height="30" as="geometry" />
        </mxCell>
        <mxCell id="8ngV8dPodzn89XrmvqAj-116" value="" style="ellipse;whiteSpace=wrap;html=1;aspect=fixed;" vertex="1" parent="1">
          <mxGeometry x="-1356" y="418" width="30" height="30" as="geometry" />
        </mxCell>
        <mxCell id="8ngV8dPodzn89XrmvqAj-117" value="" style="ellipse;whiteSpace=wrap;html=1;aspect=fixed;" vertex="1" parent="1">
          <mxGeometry x="-1584" y="379" width="30" height="30" as="geometry" />
        </mxCell>
        <mxCell id="8ngV8dPodzn89XrmvqAj-118" value="" style="ellipse;whiteSpace=wrap;html=1;aspect=fixed;" vertex="1" parent="1">
          <mxGeometry x="-1584" y="418" width="30" height="30" as="geometry" />
        </mxCell>
        <mxCell id="8ngV8dPodzn89XrmvqAj-119" value="" style="rounded=0;whiteSpace=wrap;html=1;fillColor=#ffe6cc;strokeColor=#d79b00;" vertex="1" parent="1">
          <mxGeometry x="-1530" y="470" width="150" height="84" as="geometry" />
        </mxCell>
        <mxCell id="8ngV8dPodzn89XrmvqAj-120" value="" style="endArrow=none;html=1;rounded=0;fillColor=#ffe6cc;strokeColor=#d79b00;" edge="1" parent="1" source="8ngV8dPodzn89XrmvqAj-121" target="8ngV8dPodzn89XrmvqAj-138">
          <mxGeometry width="50" height="50" relative="1" as="geometry">
            <mxPoint x="-1456" y="440" as="sourcePoint" />
            <mxPoint x="-1550.37851943447" y="486.87266063793356" as="targetPoint" />
          </mxGeometry>
        </mxCell>
        <mxCell id="8ngV8dPodzn89XrmvqAj-121" value="" style="ellipse;whiteSpace=wrap;html=1;aspect=fixed;strokeColor=#d79b00;fillColor=#ffe6cc;" vertex="1" parent="1">
          <mxGeometry x="-1524" y="479" width="30" height="30" as="geometry" />
        </mxCell>
        <mxCell id="8ngV8dPodzn89XrmvqAj-122" value="" style="ellipse;whiteSpace=wrap;html=1;aspect=fixed;strokeColor=#d79b00;fillColor=#ffe6cc;" vertex="1" parent="1">
          <mxGeometry x="-1420" y="479" width="30" height="30" as="geometry" />
        </mxCell>
        <mxCell id="8ngV8dPodzn89XrmvqAj-123" value="" style="ellipse;whiteSpace=wrap;html=1;aspect=fixed;strokeColor=#d79b00;fillColor=#ffe6cc;" vertex="1" parent="1">
          <mxGeometry x="-1524" y="518" width="30" height="30" as="geometry" />
        </mxCell>
        <mxCell id="8ngV8dPodzn89XrmvqAj-124" value="" style="ellipse;whiteSpace=wrap;html=1;aspect=fixed;strokeColor=#d79b00;fillColor=#ffe6cc;" vertex="1" parent="1">
          <mxGeometry x="-1420" y="518" width="30" height="30" as="geometry" />
        </mxCell>
        <mxCell id="8ngV8dPodzn89XrmvqAj-125" value="" style="endArrow=none;html=1;rounded=0;fillColor=#ffe6cc;strokeColor=#d79b00;" edge="1" parent="1" source="8ngV8dPodzn89XrmvqAj-123" target="8ngV8dPodzn89XrmvqAj-138">
          <mxGeometry width="50" height="50" relative="1" as="geometry">
            <mxPoint x="-1514" y="502" as="sourcePoint" />
            <mxPoint x="-1554.6355744080452" y="495.8036879932955" as="targetPoint" />
          </mxGeometry>
        </mxCell>
        <mxCell id="8ngV8dPodzn89XrmvqAj-126" value="" style="endArrow=none;html=1;rounded=0;fillColor=#ffe6cc;strokeColor=#d79b00;" edge="1" parent="1" source="8ngV8dPodzn89XrmvqAj-121" target="8ngV8dPodzn89XrmvqAj-139">
          <mxGeometry width="50" height="50" relative="1" as="geometry">
            <mxPoint x="-1504" y="512" as="sourcePoint" />
            <mxPoint x="-1554.05050775248" y="528.9329499443104" as="targetPoint" />
          </mxGeometry>
        </mxCell>
        <mxCell id="8ngV8dPodzn89XrmvqAj-127" value="" style="endArrow=none;html=1;rounded=0;fillColor=#ffe6cc;strokeColor=#d79b00;" edge="1" parent="1" source="8ngV8dPodzn89XrmvqAj-123" target="8ngV8dPodzn89XrmvqAj-139">
          <mxGeometry width="50" height="50" relative="1" as="geometry">
            <mxPoint x="-1494" y="522" as="sourcePoint" />
            <mxPoint x="-1550.175441986345" y="538.3567255981793" as="targetPoint" />
          </mxGeometry>
        </mxCell>
        <mxCell id="8ngV8dPodzn89XrmvqAj-128" value="" style="endArrow=none;html=1;rounded=0;fillColor=#ffe6cc;strokeColor=#d79b00;" edge="1" parent="1" source="8ngV8dPodzn89XrmvqAj-122" target="8ngV8dPodzn89XrmvqAj-136">
          <mxGeometry width="50" height="50" relative="1" as="geometry">
            <mxPoint x="-1484" y="532" as="sourcePoint" />
            <mxPoint x="-1359.6656400997076" y="486.64178520364953" as="targetPoint" />
          </mxGeometry>
        </mxCell>
        <mxCell id="8ngV8dPodzn89XrmvqAj-129" value="" style="endArrow=none;html=1;rounded=0;fillColor=#ffe6cc;strokeColor=#d79b00;" edge="1" parent="1" source="8ngV8dPodzn89XrmvqAj-124" target="8ngV8dPodzn89XrmvqAj-136">
          <mxGeometry width="50" height="50" relative="1" as="geometry">
            <mxPoint x="-1474" y="542" as="sourcePoint" />
            <mxPoint x="-1355.8342944264225" y="495.2178197734738" as="targetPoint" />
          </mxGeometry>
        </mxCell>
        <mxCell id="8ngV8dPodzn89XrmvqAj-130" value="" style="endArrow=none;html=1;rounded=0;fillColor=#ffe6cc;strokeColor=#d79b00;" edge="1" parent="1" source="8ngV8dPodzn89XrmvqAj-122" target="8ngV8dPodzn89XrmvqAj-137">
          <mxGeometry width="50" height="50" relative="1" as="geometry">
            <mxPoint x="-1464" y="552" as="sourcePoint" />
            <mxPoint x="-1356.308610053092" y="529.4229002709532" as="targetPoint" />
          </mxGeometry>
        </mxCell>
        <mxCell id="8ngV8dPodzn89XrmvqAj-131" value="" style="endArrow=none;html=1;rounded=0;fillColor=#ffe6cc;strokeColor=#d79b00;" edge="1" parent="1" source="8ngV8dPodzn89XrmvqAj-124" target="8ngV8dPodzn89XrmvqAj-137">
          <mxGeometry width="50" height="50" relative="1" as="geometry">
            <mxPoint x="-1454" y="562" as="sourcePoint" />
            <mxPoint x="-1359.8493046644328" y="538.5494685599466" as="targetPoint" />
          </mxGeometry>
        </mxCell>
        <mxCell id="8ngV8dPodzn89XrmvqAj-132" value="" style="endArrow=none;html=1;rounded=0;fillColor=#ffe6cc;strokeColor=#d79b00;" edge="1" parent="1" source="8ngV8dPodzn89XrmvqAj-122" target="8ngV8dPodzn89XrmvqAj-121">
          <mxGeometry width="50" height="50" relative="1" as="geometry">
            <mxPoint x="-1444" y="572" as="sourcePoint" />
            <mxPoint x="-1470" y="567" as="targetPoint" />
          </mxGeometry>
        </mxCell>
        <mxCell id="8ngV8dPodzn89XrmvqAj-133" value="" style="endArrow=none;html=1;rounded=0;fillColor=#ffe6cc;strokeColor=#d79b00;" edge="1" parent="1" source="8ngV8dPodzn89XrmvqAj-124" target="8ngV8dPodzn89XrmvqAj-121">
          <mxGeometry width="50" height="50" relative="1" as="geometry">
            <mxPoint x="-1434" y="582" as="sourcePoint" />
            <mxPoint x="-1460" y="577" as="targetPoint" />
          </mxGeometry>
        </mxCell>
        <mxCell id="8ngV8dPodzn89XrmvqAj-134" value="" style="endArrow=none;html=1;rounded=0;fillColor=#ffe6cc;strokeColor=#d79b00;" edge="1" parent="1" source="8ngV8dPodzn89XrmvqAj-122" target="8ngV8dPodzn89XrmvqAj-123">
          <mxGeometry width="50" height="50" relative="1" as="geometry">
            <mxPoint x="-1424" y="592" as="sourcePoint" />
            <mxPoint x="-1450" y="587" as="targetPoint" />
          </mxGeometry>
        </mxCell>
        <mxCell id="8ngV8dPodzn89XrmvqAj-135" value="" style="endArrow=none;html=1;rounded=0;fillColor=#ffe6cc;strokeColor=#d79b00;" edge="1" parent="1" source="8ngV8dPodzn89XrmvqAj-124" target="8ngV8dPodzn89XrmvqAj-123">
          <mxGeometry width="50" height="50" relative="1" as="geometry">
            <mxPoint x="-1414" y="602" as="sourcePoint" />
            <mxPoint x="-1440" y="597" as="targetPoint" />
          </mxGeometry>
        </mxCell>
        <mxCell id="8ngV8dPodzn89XrmvqAj-136" value="" style="ellipse;whiteSpace=wrap;html=1;aspect=fixed;" vertex="1" parent="1">
          <mxGeometry x="-1356" y="479" width="30" height="30" as="geometry" />
        </mxCell>
        <mxCell id="8ngV8dPodzn89XrmvqAj-137" value="" style="ellipse;whiteSpace=wrap;html=1;aspect=fixed;" vertex="1" parent="1">
          <mxGeometry x="-1356" y="518" width="30" height="30" as="geometry" />
        </mxCell>
        <mxCell id="8ngV8dPodzn89XrmvqAj-138" value="" style="ellipse;whiteSpace=wrap;html=1;aspect=fixed;" vertex="1" parent="1">
          <mxGeometry x="-1584" y="479" width="30" height="30" as="geometry" />
        </mxCell>
        <mxCell id="8ngV8dPodzn89XrmvqAj-139" value="" style="ellipse;whiteSpace=wrap;html=1;aspect=fixed;" vertex="1" parent="1">
          <mxGeometry x="-1584" y="518" width="30" height="30" as="geometry" />
        </mxCell>
        <mxCell id="8ngV8dPodzn89XrmvqAj-161" value="" style="rounded=0;whiteSpace=wrap;html=1;fillColor=#d5e8d4;strokeColor=#82b366;" vertex="1" parent="1">
          <mxGeometry x="-1530" y="570" width="150" height="84" as="geometry" />
        </mxCell>
        <mxCell id="8ngV8dPodzn89XrmvqAj-162" value="" style="endArrow=none;html=1;rounded=0;fillColor=#d5e8d4;strokeColor=#82b366;" edge="1" parent="1" source="8ngV8dPodzn89XrmvqAj-163" target="8ngV8dPodzn89XrmvqAj-180">
          <mxGeometry width="50" height="50" relative="1" as="geometry">
            <mxPoint x="-1456" y="540" as="sourcePoint" />
            <mxPoint x="-1550.37851943447" y="586.8726606379336" as="targetPoint" />
          </mxGeometry>
        </mxCell>
        <mxCell id="8ngV8dPodzn89XrmvqAj-163" value="" style="ellipse;whiteSpace=wrap;html=1;aspect=fixed;strokeColor=#82b366;fillColor=#d5e8d4;" vertex="1" parent="1">
          <mxGeometry x="-1524" y="579" width="30" height="30" as="geometry" />
        </mxCell>
        <mxCell id="8ngV8dPodzn89XrmvqAj-164" value="" style="ellipse;whiteSpace=wrap;html=1;aspect=fixed;strokeColor=#82b366;fillColor=#d5e8d4;" vertex="1" parent="1">
          <mxGeometry x="-1420" y="579" width="30" height="30" as="geometry" />
        </mxCell>
        <mxCell id="8ngV8dPodzn89XrmvqAj-165" value="" style="ellipse;whiteSpace=wrap;html=1;aspect=fixed;strokeColor=#82b366;fillColor=#d5e8d4;" vertex="1" parent="1">
          <mxGeometry x="-1524" y="618" width="30" height="30" as="geometry" />
        </mxCell>
        <mxCell id="8ngV8dPodzn89XrmvqAj-166" value="" style="ellipse;whiteSpace=wrap;html=1;aspect=fixed;strokeColor=#82b366;fillColor=#d5e8d4;" vertex="1" parent="1">
          <mxGeometry x="-1420" y="618" width="30" height="30" as="geometry" />
        </mxCell>
        <mxCell id="8ngV8dPodzn89XrmvqAj-167" value="" style="endArrow=none;html=1;rounded=0;fillColor=#d5e8d4;strokeColor=#82b366;" edge="1" parent="1" source="8ngV8dPodzn89XrmvqAj-165" target="8ngV8dPodzn89XrmvqAj-180">
          <mxGeometry width="50" height="50" relative="1" as="geometry">
            <mxPoint x="-1514" y="602" as="sourcePoint" />
            <mxPoint x="-1554.6355744080452" y="595.8036879932955" as="targetPoint" />
          </mxGeometry>
        </mxCell>
        <mxCell id="8ngV8dPodzn89XrmvqAj-168" value="" style="endArrow=none;html=1;rounded=0;fillColor=#d5e8d4;strokeColor=#82b366;" edge="1" parent="1" source="8ngV8dPodzn89XrmvqAj-163" target="8ngV8dPodzn89XrmvqAj-181">
          <mxGeometry width="50" height="50" relative="1" as="geometry">
            <mxPoint x="-1504" y="612" as="sourcePoint" />
            <mxPoint x="-1554.05050775248" y="628.9329499443104" as="targetPoint" />
          </mxGeometry>
        </mxCell>
        <mxCell id="8ngV8dPodzn89XrmvqAj-169" value="" style="endArrow=none;html=1;rounded=0;fillColor=#d5e8d4;strokeColor=#82b366;" edge="1" parent="1" source="8ngV8dPodzn89XrmvqAj-165" target="8ngV8dPodzn89XrmvqAj-181">
          <mxGeometry width="50" height="50" relative="1" as="geometry">
            <mxPoint x="-1494" y="622" as="sourcePoint" />
            <mxPoint x="-1550.175441986345" y="638.3567255981793" as="targetPoint" />
          </mxGeometry>
        </mxCell>
        <mxCell id="8ngV8dPodzn89XrmvqAj-170" value="" style="endArrow=none;html=1;rounded=0;fillColor=#d5e8d4;strokeColor=#82b366;" edge="1" parent="1" source="8ngV8dPodzn89XrmvqAj-164" target="8ngV8dPodzn89XrmvqAj-178">
          <mxGeometry width="50" height="50" relative="1" as="geometry">
            <mxPoint x="-1484" y="632" as="sourcePoint" />
            <mxPoint x="-1359.6656400997076" y="586.6417852036495" as="targetPoint" />
          </mxGeometry>
        </mxCell>
        <mxCell id="8ngV8dPodzn89XrmvqAj-171" value="" style="endArrow=none;html=1;rounded=0;fillColor=#d5e8d4;strokeColor=#82b366;" edge="1" parent="1" source="8ngV8dPodzn89XrmvqAj-166" target="8ngV8dPodzn89XrmvqAj-178">
          <mxGeometry width="50" height="50" relative="1" as="geometry">
            <mxPoint x="-1474" y="642" as="sourcePoint" />
            <mxPoint x="-1355.8342944264225" y="595.2178197734738" as="targetPoint" />
          </mxGeometry>
        </mxCell>
        <mxCell id="8ngV8dPodzn89XrmvqAj-172" value="" style="endArrow=none;html=1;rounded=0;fillColor=#d5e8d4;strokeColor=#82b366;" edge="1" parent="1" source="8ngV8dPodzn89XrmvqAj-164" target="8ngV8dPodzn89XrmvqAj-179">
          <mxGeometry width="50" height="50" relative="1" as="geometry">
            <mxPoint x="-1464" y="652" as="sourcePoint" />
            <mxPoint x="-1356.308610053092" y="629.4229002709532" as="targetPoint" />
          </mxGeometry>
        </mxCell>
        <mxCell id="8ngV8dPodzn89XrmvqAj-173" value="" style="endArrow=none;html=1;rounded=0;fillColor=#d5e8d4;strokeColor=#82b366;" edge="1" parent="1" source="8ngV8dPodzn89XrmvqAj-166" target="8ngV8dPodzn89XrmvqAj-179">
          <mxGeometry width="50" height="50" relative="1" as="geometry">
            <mxPoint x="-1454" y="662" as="sourcePoint" />
            <mxPoint x="-1359.8493046644328" y="638.5494685599466" as="targetPoint" />
          </mxGeometry>
        </mxCell>
        <mxCell id="8ngV8dPodzn89XrmvqAj-174" value="" style="endArrow=none;html=1;rounded=0;fillColor=#d5e8d4;strokeColor=#82b366;" edge="1" parent="1" source="8ngV8dPodzn89XrmvqAj-164" target="8ngV8dPodzn89XrmvqAj-163">
          <mxGeometry width="50" height="50" relative="1" as="geometry">
            <mxPoint x="-1444" y="672" as="sourcePoint" />
            <mxPoint x="-1470" y="667" as="targetPoint" />
          </mxGeometry>
        </mxCell>
        <mxCell id="8ngV8dPodzn89XrmvqAj-175" value="" style="endArrow=none;html=1;rounded=0;fillColor=#d5e8d4;strokeColor=#82b366;" edge="1" parent="1" source="8ngV8dPodzn89XrmvqAj-166" target="8ngV8dPodzn89XrmvqAj-163">
          <mxGeometry width="50" height="50" relative="1" as="geometry">
            <mxPoint x="-1434" y="682" as="sourcePoint" />
            <mxPoint x="-1460" y="677" as="targetPoint" />
          </mxGeometry>
        </mxCell>
        <mxCell id="8ngV8dPodzn89XrmvqAj-176" value="" style="endArrow=none;html=1;rounded=0;fillColor=#d5e8d4;strokeColor=#82b366;" edge="1" parent="1" source="8ngV8dPodzn89XrmvqAj-164" target="8ngV8dPodzn89XrmvqAj-165">
          <mxGeometry width="50" height="50" relative="1" as="geometry">
            <mxPoint x="-1424" y="692" as="sourcePoint" />
            <mxPoint x="-1450" y="687" as="targetPoint" />
          </mxGeometry>
        </mxCell>
        <mxCell id="8ngV8dPodzn89XrmvqAj-177" value="" style="endArrow=none;html=1;rounded=0;fillColor=#d5e8d4;strokeColor=#82b366;" edge="1" parent="1" source="8ngV8dPodzn89XrmvqAj-166" target="8ngV8dPodzn89XrmvqAj-165">
          <mxGeometry width="50" height="50" relative="1" as="geometry">
            <mxPoint x="-1414" y="702" as="sourcePoint" />
            <mxPoint x="-1440" y="697" as="targetPoint" />
          </mxGeometry>
        </mxCell>
        <mxCell id="8ngV8dPodzn89XrmvqAj-178" value="" style="ellipse;whiteSpace=wrap;html=1;aspect=fixed;" vertex="1" parent="1">
          <mxGeometry x="-1356" y="579" width="30" height="30" as="geometry" />
        </mxCell>
        <mxCell id="8ngV8dPodzn89XrmvqAj-179" value="" style="ellipse;whiteSpace=wrap;html=1;aspect=fixed;" vertex="1" parent="1">
          <mxGeometry x="-1356" y="618" width="30" height="30" as="geometry" />
        </mxCell>
        <mxCell id="8ngV8dPodzn89XrmvqAj-180" value="" style="ellipse;whiteSpace=wrap;html=1;aspect=fixed;" vertex="1" parent="1">
          <mxGeometry x="-1584" y="579" width="30" height="30" as="geometry" />
        </mxCell>
        <mxCell id="8ngV8dPodzn89XrmvqAj-181" value="" style="ellipse;whiteSpace=wrap;html=1;aspect=fixed;" vertex="1" parent="1">
          <mxGeometry x="-1584" y="618" width="30" height="30" as="geometry" />
        </mxCell>
        <mxCell id="8ngV8dPodzn89XrmvqAj-182" value="Inputs" style="text;html=1;strokeColor=none;fillColor=none;align=center;verticalAlign=middle;whiteSpace=wrap;rounded=0;shadow=1;strokeWidth=1.5;" vertex="1" parent="1">
          <mxGeometry x="-1619" y="660" width="100" height="20" as="geometry" />
        </mxCell>
        <mxCell id="8ngV8dPodzn89XrmvqAj-183" value="Outputs" style="text;html=1;strokeColor=none;fillColor=none;align=center;verticalAlign=middle;whiteSpace=wrap;rounded=0;shadow=1;strokeWidth=1.5;" vertex="1" parent="1">
          <mxGeometry x="-1391" y="660" width="100" height="20" as="geometry" />
        </mxCell>
        <mxCell id="8ngV8dPodzn89XrmvqAj-270" value="" style="rounded=0;whiteSpace=wrap;html=1;fillColor=#f8cecc;strokeColor=#b85450;" vertex="1" parent="1">
          <mxGeometry x="-1197" y="270" width="150" height="390" as="geometry" />
        </mxCell>
        <mxCell id="8ngV8dPodzn89XrmvqAj-271" value="" style="endArrow=none;html=1;rounded=0;fillColor=#f8cecc;strokeColor=#b85450;" edge="1" parent="1" source="8ngV8dPodzn89XrmvqAj-272" target="8ngV8dPodzn89XrmvqAj-311">
          <mxGeometry width="50" height="50" relative="1" as="geometry">
            <mxPoint x="-1123" y="240" as="sourcePoint" />
            <mxPoint x="-1217.2349503512764" y="287.6444865042489" as="targetPoint" />
          </mxGeometry>
        </mxCell>
        <mxCell id="8ngV8dPodzn89XrmvqAj-272" value="" style="ellipse;whiteSpace=wrap;html=1;aspect=fixed;strokeColor=#b85450;fillColor=#f8cecc;" vertex="1" parent="1">
          <mxGeometry x="-1191" y="279" width="30" height="30" as="geometry" />
        </mxCell>
        <mxCell id="8ngV8dPodzn89XrmvqAj-273" value="" style="ellipse;whiteSpace=wrap;html=1;aspect=fixed;strokeColor=#b85450;fillColor=#f8cecc;" vertex="1" parent="1">
          <mxGeometry x="-1087" y="279" width="30" height="30" as="geometry" />
        </mxCell>
        <mxCell id="8ngV8dPodzn89XrmvqAj-274" value="" style="ellipse;whiteSpace=wrap;html=1;aspect=fixed;strokeColor=#b85450;fillColor=#f8cecc;" vertex="1" parent="1">
          <mxGeometry x="-1191" y="318" width="30" height="30" as="geometry" />
        </mxCell>
        <mxCell id="8ngV8dPodzn89XrmvqAj-275" value="" style="ellipse;whiteSpace=wrap;html=1;aspect=fixed;strokeColor=#b85450;fillColor=#f8cecc;" vertex="1" parent="1">
          <mxGeometry x="-1087" y="318" width="30" height="30" as="geometry" />
        </mxCell>
        <mxCell id="8ngV8dPodzn89XrmvqAj-276" value="" style="endArrow=none;html=1;rounded=0;fillColor=#f8cecc;strokeColor=#b85450;" edge="1" parent="1" source="8ngV8dPodzn89XrmvqAj-274" target="8ngV8dPodzn89XrmvqAj-311">
          <mxGeometry width="50" height="50" relative="1" as="geometry">
            <mxPoint x="-1181" y="302" as="sourcePoint" />
            <mxPoint x="-1220.6476548834353" y="294.804298055215" as="targetPoint" />
          </mxGeometry>
        </mxCell>
        <mxCell id="8ngV8dPodzn89XrmvqAj-277" value="" style="endArrow=none;html=1;rounded=0;fillColor=#f8cecc;strokeColor=#b85450;" edge="1" parent="1" source="8ngV8dPodzn89XrmvqAj-272" target="8ngV8dPodzn89XrmvqAj-331">
          <mxGeometry width="50" height="50" relative="1" as="geometry">
            <mxPoint x="-1171" y="312" as="sourcePoint" />
            <mxPoint x="-1220.0644360467477" y="328.9147199758827" as="targetPoint" />
          </mxGeometry>
        </mxCell>
        <mxCell id="8ngV8dPodzn89XrmvqAj-278" value="" style="endArrow=none;html=1;rounded=0;fillColor=#f8cecc;strokeColor=#b85450;" edge="1" parent="1" source="8ngV8dPodzn89XrmvqAj-274" target="8ngV8dPodzn89XrmvqAj-331">
          <mxGeometry width="50" height="50" relative="1" as="geometry">
            <mxPoint x="-1161" y="322" as="sourcePoint" />
            <mxPoint x="-1217.0616019030276" y="336.6419638093662" as="targetPoint" />
          </mxGeometry>
        </mxCell>
        <mxCell id="8ngV8dPodzn89XrmvqAj-279" value="" style="endArrow=classicThin;html=1;rounded=0;fillColor=#f8cecc;strokeColor=#b85450;startArrow=none;startFill=0;elbow=vertical;endFill=1;" edge="1" parent="1" source="8ngV8dPodzn89XrmvqAj-273" target="8ngV8dPodzn89XrmvqAj-309">
          <mxGeometry width="50" height="50" relative="1" as="geometry">
            <mxPoint x="-1151" y="332" as="sourcePoint" />
            <mxPoint x="-1026.7959088574821" y="287.4659848095803" as="targetPoint" />
          </mxGeometry>
        </mxCell>
        <mxCell id="8ngV8dPodzn89XrmvqAj-280" value="" style="endArrow=classicThin;html=1;rounded=0;fillColor=#f8cecc;strokeColor=#b85450;endFill=1;" edge="1" parent="1" source="8ngV8dPodzn89XrmvqAj-275" target="8ngV8dPodzn89XrmvqAj-309">
          <mxGeometry width="50" height="50" relative="1" as="geometry">
            <mxPoint x="-1141" y="342" as="sourcePoint" />
            <mxPoint x="-1023.760687366926" y="294.3105441654833" as="targetPoint" />
          </mxGeometry>
        </mxCell>
        <mxCell id="8ngV8dPodzn89XrmvqAj-281" value="" style="endArrow=classicThin;html=1;rounded=0;fillColor=#f8cecc;strokeColor=#b85450;endFill=1;" edge="1" parent="1" source="8ngV8dPodzn89XrmvqAj-273" target="8ngV8dPodzn89XrmvqAj-329">
          <mxGeometry width="50" height="50" relative="1" as="geometry">
            <mxPoint x="-1131" y="352" as="sourcePoint" />
            <mxPoint x="-1024.2403672165833" y="329.32973988825324" as="targetPoint" />
          </mxGeometry>
        </mxCell>
        <mxCell id="8ngV8dPodzn89XrmvqAj-282" value="" style="endArrow=classicThin;html=1;rounded=0;fillColor=#f8cecc;strokeColor=#b85450;endFill=1;" edge="1" parent="1" source="8ngV8dPodzn89XrmvqAj-275" target="8ngV8dPodzn89XrmvqAj-329">
          <mxGeometry width="50" height="50" relative="1" as="geometry">
            <mxPoint x="-1121" y="362" as="sourcePoint" />
            <mxPoint x="-1026.9481863736996" y="336.75431780219174" as="targetPoint" />
          </mxGeometry>
        </mxCell>
        <mxCell id="8ngV8dPodzn89XrmvqAj-283" value="" style="endArrow=none;html=1;rounded=0;fillColor=#f8cecc;strokeColor=#b85450;" edge="1" parent="1" source="8ngV8dPodzn89XrmvqAj-273" target="8ngV8dPodzn89XrmvqAj-272">
          <mxGeometry width="50" height="50" relative="1" as="geometry">
            <mxPoint x="-1111" y="372" as="sourcePoint" />
            <mxPoint x="-1137" y="367" as="targetPoint" />
          </mxGeometry>
        </mxCell>
        <mxCell id="8ngV8dPodzn89XrmvqAj-284" value="" style="endArrow=none;html=1;rounded=0;fillColor=#f8cecc;strokeColor=#b85450;" edge="1" parent="1" source="8ngV8dPodzn89XrmvqAj-275" target="8ngV8dPodzn89XrmvqAj-272">
          <mxGeometry width="50" height="50" relative="1" as="geometry">
            <mxPoint x="-1101" y="382" as="sourcePoint" />
            <mxPoint x="-1127" y="377" as="targetPoint" />
          </mxGeometry>
        </mxCell>
        <mxCell id="8ngV8dPodzn89XrmvqAj-285" value="" style="endArrow=none;html=1;rounded=0;fillColor=#f8cecc;strokeColor=#b85450;" edge="1" parent="1" source="8ngV8dPodzn89XrmvqAj-273" target="8ngV8dPodzn89XrmvqAj-274">
          <mxGeometry width="50" height="50" relative="1" as="geometry">
            <mxPoint x="-1091" y="392" as="sourcePoint" />
            <mxPoint x="-1117" y="387" as="targetPoint" />
          </mxGeometry>
        </mxCell>
        <mxCell id="8ngV8dPodzn89XrmvqAj-286" value="" style="endArrow=none;html=1;rounded=0;fillColor=#f8cecc;strokeColor=#b85450;" edge="1" parent="1" source="8ngV8dPodzn89XrmvqAj-275" target="8ngV8dPodzn89XrmvqAj-274">
          <mxGeometry width="50" height="50" relative="1" as="geometry">
            <mxPoint x="-1081" y="402" as="sourcePoint" />
            <mxPoint x="-1107" y="397" as="targetPoint" />
          </mxGeometry>
        </mxCell>
        <mxCell id="8ngV8dPodzn89XrmvqAj-292" value="" style="endArrow=none;html=1;rounded=0;fillColor=#dae8fc;strokeColor=#6c8ebf;" edge="1" parent="1" source="8ngV8dPodzn89XrmvqAj-293" target="8ngV8dPodzn89XrmvqAj-311">
          <mxGeometry width="50" height="50" relative="1" as="geometry">
            <mxPoint x="-1123" y="340" as="sourcePoint" />
            <mxPoint x="-1217.2349503512764" y="387.6444865042489" as="targetPoint" />
          </mxGeometry>
        </mxCell>
        <mxCell id="8ngV8dPodzn89XrmvqAj-293" value="" style="ellipse;whiteSpace=wrap;html=1;aspect=fixed;strokeColor=#6c8ebf;fillColor=#dae8fc;" vertex="1" parent="1">
          <mxGeometry x="-1191" y="379" width="30" height="30" as="geometry" />
        </mxCell>
        <mxCell id="8ngV8dPodzn89XrmvqAj-294" value="" style="ellipse;whiteSpace=wrap;html=1;aspect=fixed;strokeColor=#6c8ebf;fillColor=#dae8fc;" vertex="1" parent="1">
          <mxGeometry x="-1087" y="379" width="30" height="30" as="geometry" />
        </mxCell>
        <mxCell id="8ngV8dPodzn89XrmvqAj-295" value="" style="ellipse;whiteSpace=wrap;html=1;aspect=fixed;strokeColor=#6c8ebf;fillColor=#dae8fc;" vertex="1" parent="1">
          <mxGeometry x="-1191" y="418" width="30" height="30" as="geometry" />
        </mxCell>
        <mxCell id="8ngV8dPodzn89XrmvqAj-296" value="" style="ellipse;whiteSpace=wrap;html=1;aspect=fixed;strokeColor=#6c8ebf;fillColor=#dae8fc;" vertex="1" parent="1">
          <mxGeometry x="-1087" y="418" width="30" height="30" as="geometry" />
        </mxCell>
        <mxCell id="8ngV8dPodzn89XrmvqAj-297" value="" style="endArrow=none;html=1;rounded=0;fillColor=#dae8fc;strokeColor=#6c8ebf;" edge="1" parent="1" source="8ngV8dPodzn89XrmvqAj-295" target="8ngV8dPodzn89XrmvqAj-311">
          <mxGeometry width="50" height="50" relative="1" as="geometry">
            <mxPoint x="-1181" y="402" as="sourcePoint" />
            <mxPoint x="-1220.6476548834353" y="394.804298055215" as="targetPoint" />
          </mxGeometry>
        </mxCell>
        <mxCell id="8ngV8dPodzn89XrmvqAj-298" value="" style="endArrow=none;html=1;rounded=0;fillColor=#dae8fc;strokeColor=#6c8ebf;" edge="1" parent="1" source="8ngV8dPodzn89XrmvqAj-293" target="8ngV8dPodzn89XrmvqAj-331">
          <mxGeometry width="50" height="50" relative="1" as="geometry">
            <mxPoint x="-1171" y="412" as="sourcePoint" />
            <mxPoint x="-1221.05050775248" y="428.9329499443104" as="targetPoint" />
          </mxGeometry>
        </mxCell>
        <mxCell id="8ngV8dPodzn89XrmvqAj-299" value="" style="endArrow=none;html=1;rounded=0;fillColor=#dae8fc;strokeColor=#6c8ebf;" edge="1" parent="1" source="8ngV8dPodzn89XrmvqAj-295" target="8ngV8dPodzn89XrmvqAj-331">
          <mxGeometry width="50" height="50" relative="1" as="geometry">
            <mxPoint x="-1161" y="422" as="sourcePoint" />
            <mxPoint x="-1217.175441986345" y="438.3567255981793" as="targetPoint" />
          </mxGeometry>
        </mxCell>
        <mxCell id="8ngV8dPodzn89XrmvqAj-300" value="" style="endArrow=classicThin;html=1;rounded=0;fillColor=#dae8fc;strokeColor=#6c8ebf;endFill=1;" edge="1" parent="1" source="8ngV8dPodzn89XrmvqAj-294" target="8ngV8dPodzn89XrmvqAj-329">
          <mxGeometry width="50" height="50" relative="1" as="geometry">
            <mxPoint x="-1151" y="432" as="sourcePoint" />
            <mxPoint x="-1026.7959088574821" y="387.4659848095803" as="targetPoint" />
          </mxGeometry>
        </mxCell>
        <mxCell id="8ngV8dPodzn89XrmvqAj-301" value="" style="endArrow=classicThin;html=1;rounded=0;fillColor=#dae8fc;strokeColor=#6c8ebf;endFill=1;" edge="1" parent="1" source="8ngV8dPodzn89XrmvqAj-296" target="8ngV8dPodzn89XrmvqAj-309">
          <mxGeometry width="50" height="50" relative="1" as="geometry">
            <mxPoint x="-1141" y="442" as="sourcePoint" />
            <mxPoint x="-1023.760687366926" y="394.3105441654833" as="targetPoint" />
          </mxGeometry>
        </mxCell>
        <mxCell id="8ngV8dPodzn89XrmvqAj-302" value="" style="endArrow=classicThin;html=1;rounded=0;fillColor=#dae8fc;strokeColor=#6c8ebf;endFill=1;" edge="1" parent="1" source="8ngV8dPodzn89XrmvqAj-294" target="8ngV8dPodzn89XrmvqAj-309">
          <mxGeometry width="50" height="50" relative="1" as="geometry">
            <mxPoint x="-1131" y="452" as="sourcePoint" />
            <mxPoint x="-1023.308610053092" y="429.42290027095316" as="targetPoint" />
          </mxGeometry>
        </mxCell>
        <mxCell id="8ngV8dPodzn89XrmvqAj-303" value="" style="endArrow=classicThin;html=1;rounded=0;fillColor=#dae8fc;strokeColor=#6c8ebf;endFill=1;" edge="1" parent="1" source="8ngV8dPodzn89XrmvqAj-296" target="8ngV8dPodzn89XrmvqAj-329">
          <mxGeometry width="50" height="50" relative="1" as="geometry">
            <mxPoint x="-1121" y="462" as="sourcePoint" />
            <mxPoint x="-1026.8493046644328" y="438.5494685599466" as="targetPoint" />
          </mxGeometry>
        </mxCell>
        <mxCell id="8ngV8dPodzn89XrmvqAj-304" value="" style="endArrow=none;html=1;rounded=0;fillColor=#dae8fc;strokeColor=#6c8ebf;" edge="1" parent="1" source="8ngV8dPodzn89XrmvqAj-294" target="8ngV8dPodzn89XrmvqAj-293">
          <mxGeometry width="50" height="50" relative="1" as="geometry">
            <mxPoint x="-1111" y="472" as="sourcePoint" />
            <mxPoint x="-1137" y="467" as="targetPoint" />
          </mxGeometry>
        </mxCell>
        <mxCell id="8ngV8dPodzn89XrmvqAj-305" value="" style="endArrow=none;html=1;rounded=0;fillColor=#dae8fc;strokeColor=#6c8ebf;" edge="1" parent="1" source="8ngV8dPodzn89XrmvqAj-296" target="8ngV8dPodzn89XrmvqAj-293">
          <mxGeometry width="50" height="50" relative="1" as="geometry">
            <mxPoint x="-1101" y="482" as="sourcePoint" />
            <mxPoint x="-1127" y="477" as="targetPoint" />
          </mxGeometry>
        </mxCell>
        <mxCell id="8ngV8dPodzn89XrmvqAj-306" value="" style="endArrow=none;html=1;rounded=0;fillColor=#dae8fc;strokeColor=#6c8ebf;" edge="1" parent="1" source="8ngV8dPodzn89XrmvqAj-294" target="8ngV8dPodzn89XrmvqAj-295">
          <mxGeometry width="50" height="50" relative="1" as="geometry">
            <mxPoint x="-1091" y="492" as="sourcePoint" />
            <mxPoint x="-1117" y="487" as="targetPoint" />
          </mxGeometry>
        </mxCell>
        <mxCell id="8ngV8dPodzn89XrmvqAj-307" value="" style="endArrow=none;html=1;rounded=0;fillColor=#dae8fc;strokeColor=#6c8ebf;" edge="1" parent="1" source="8ngV8dPodzn89XrmvqAj-296" target="8ngV8dPodzn89XrmvqAj-295">
          <mxGeometry width="50" height="50" relative="1" as="geometry">
            <mxPoint x="-1081" y="502" as="sourcePoint" />
            <mxPoint x="-1107" y="497" as="targetPoint" />
          </mxGeometry>
        </mxCell>
        <mxCell id="8ngV8dPodzn89XrmvqAj-309" value="" style="ellipse;whiteSpace=wrap;html=1;aspect=fixed;" vertex="1" parent="1">
          <mxGeometry x="-1025" y="423" width="30" height="30" as="geometry" />
        </mxCell>
        <mxCell id="8ngV8dPodzn89XrmvqAj-311" value="" style="ellipse;whiteSpace=wrap;html=1;aspect=fixed;" vertex="1" parent="1">
          <mxGeometry x="-1251" y="423" width="30" height="30" as="geometry" />
        </mxCell>
        <mxCell id="8ngV8dPodzn89XrmvqAj-313" value="" style="endArrow=none;html=1;rounded=0;fillColor=#ffe6cc;strokeColor=#d79b00;" edge="1" parent="1" source="8ngV8dPodzn89XrmvqAj-314" target="8ngV8dPodzn89XrmvqAj-331">
          <mxGeometry width="50" height="50" relative="1" as="geometry">
            <mxPoint x="-1123" y="440" as="sourcePoint" />
            <mxPoint x="-1217.37851943447" y="486.87266063793356" as="targetPoint" />
          </mxGeometry>
        </mxCell>
        <mxCell id="8ngV8dPodzn89XrmvqAj-314" value="" style="ellipse;whiteSpace=wrap;html=1;aspect=fixed;strokeColor=#d79b00;fillColor=#ffe6cc;" vertex="1" parent="1">
          <mxGeometry x="-1191" y="479" width="30" height="30" as="geometry" />
        </mxCell>
        <mxCell id="8ngV8dPodzn89XrmvqAj-315" value="" style="ellipse;whiteSpace=wrap;html=1;aspect=fixed;strokeColor=#d79b00;fillColor=#ffe6cc;" vertex="1" parent="1">
          <mxGeometry x="-1087" y="479" width="30" height="30" as="geometry" />
        </mxCell>
        <mxCell id="8ngV8dPodzn89XrmvqAj-316" value="" style="ellipse;whiteSpace=wrap;html=1;aspect=fixed;strokeColor=#d79b00;fillColor=#ffe6cc;" vertex="1" parent="1">
          <mxGeometry x="-1191" y="518" width="30" height="30" as="geometry" />
        </mxCell>
        <mxCell id="8ngV8dPodzn89XrmvqAj-317" value="" style="ellipse;whiteSpace=wrap;html=1;aspect=fixed;strokeColor=#d79b00;fillColor=#ffe6cc;" vertex="1" parent="1">
          <mxGeometry x="-1087" y="518" width="30" height="30" as="geometry" />
        </mxCell>
        <mxCell id="8ngV8dPodzn89XrmvqAj-318" value="" style="endArrow=none;html=1;rounded=0;fillColor=#ffe6cc;strokeColor=#d79b00;" edge="1" parent="1" source="8ngV8dPodzn89XrmvqAj-316" target="8ngV8dPodzn89XrmvqAj-331">
          <mxGeometry width="50" height="50" relative="1" as="geometry">
            <mxPoint x="-1181" y="502" as="sourcePoint" />
            <mxPoint x="-1221.6355744080452" y="495.8036879932955" as="targetPoint" />
          </mxGeometry>
        </mxCell>
        <mxCell id="8ngV8dPodzn89XrmvqAj-319" value="" style="endArrow=none;html=1;rounded=0;fillColor=#ffe6cc;strokeColor=#d79b00;" edge="1" parent="1" source="8ngV8dPodzn89XrmvqAj-314" target="8ngV8dPodzn89XrmvqAj-311">
          <mxGeometry width="50" height="50" relative="1" as="geometry">
            <mxPoint x="-1171" y="512" as="sourcePoint" />
            <mxPoint x="-1220.0644360467477" y="528.9147199758827" as="targetPoint" />
          </mxGeometry>
        </mxCell>
        <mxCell id="8ngV8dPodzn89XrmvqAj-320" value="" style="endArrow=none;html=1;rounded=0;fillColor=#ffe6cc;strokeColor=#d79b00;" edge="1" parent="1" source="8ngV8dPodzn89XrmvqAj-316" target="8ngV8dPodzn89XrmvqAj-311">
          <mxGeometry width="50" height="50" relative="1" as="geometry">
            <mxPoint x="-1161" y="522" as="sourcePoint" />
            <mxPoint x="-1217.0616019030276" y="536.6419638093662" as="targetPoint" />
          </mxGeometry>
        </mxCell>
        <mxCell id="8ngV8dPodzn89XrmvqAj-321" value="" style="endArrow=classicThin;html=1;rounded=0;fillColor=#ffe6cc;strokeColor=#d79b00;endFill=1;" edge="1" parent="1" source="8ngV8dPodzn89XrmvqAj-315" target="8ngV8dPodzn89XrmvqAj-329">
          <mxGeometry width="50" height="50" relative="1" as="geometry">
            <mxPoint x="-1151" y="532" as="sourcePoint" />
            <mxPoint x="-1026.6656400997076" y="486.64178520364953" as="targetPoint" />
          </mxGeometry>
        </mxCell>
        <mxCell id="8ngV8dPodzn89XrmvqAj-322" value="" style="endArrow=classicThin;html=1;rounded=0;fillColor=#ffe6cc;strokeColor=#d79b00;endFill=1;" edge="1" parent="1" source="8ngV8dPodzn89XrmvqAj-317" target="8ngV8dPodzn89XrmvqAj-329">
          <mxGeometry width="50" height="50" relative="1" as="geometry">
            <mxPoint x="-1141" y="542" as="sourcePoint" />
            <mxPoint x="-1022.8342944264225" y="495.2178197734738" as="targetPoint" />
          </mxGeometry>
        </mxCell>
        <mxCell id="8ngV8dPodzn89XrmvqAj-323" value="" style="endArrow=classicThin;html=1;rounded=0;fillColor=#ffe6cc;strokeColor=#d79b00;endFill=1;" edge="1" parent="1" source="8ngV8dPodzn89XrmvqAj-315" target="8ngV8dPodzn89XrmvqAj-309">
          <mxGeometry width="50" height="50" relative="1" as="geometry">
            <mxPoint x="-1131" y="552" as="sourcePoint" />
            <mxPoint x="-1024.2403672165833" y="529.3297398882532" as="targetPoint" />
          </mxGeometry>
        </mxCell>
        <mxCell id="8ngV8dPodzn89XrmvqAj-324" value="" style="endArrow=classicThin;html=1;rounded=0;fillColor=#ffe6cc;strokeColor=#d79b00;endFill=1;" edge="1" parent="1" source="8ngV8dPodzn89XrmvqAj-317" target="8ngV8dPodzn89XrmvqAj-309">
          <mxGeometry width="50" height="50" relative="1" as="geometry">
            <mxPoint x="-1121" y="562" as="sourcePoint" />
            <mxPoint x="-1026.9481863736996" y="536.7543178021917" as="targetPoint" />
          </mxGeometry>
        </mxCell>
        <mxCell id="8ngV8dPodzn89XrmvqAj-325" value="" style="endArrow=none;html=1;rounded=0;fillColor=#ffe6cc;strokeColor=#d79b00;" edge="1" parent="1" source="8ngV8dPodzn89XrmvqAj-315" target="8ngV8dPodzn89XrmvqAj-314">
          <mxGeometry width="50" height="50" relative="1" as="geometry">
            <mxPoint x="-1111" y="572" as="sourcePoint" />
            <mxPoint x="-1137" y="567" as="targetPoint" />
          </mxGeometry>
        </mxCell>
        <mxCell id="8ngV8dPodzn89XrmvqAj-326" value="" style="endArrow=none;html=1;rounded=0;fillColor=#ffe6cc;strokeColor=#d79b00;" edge="1" parent="1" source="8ngV8dPodzn89XrmvqAj-317" target="8ngV8dPodzn89XrmvqAj-314">
          <mxGeometry width="50" height="50" relative="1" as="geometry">
            <mxPoint x="-1101" y="582" as="sourcePoint" />
            <mxPoint x="-1127" y="577" as="targetPoint" />
          </mxGeometry>
        </mxCell>
        <mxCell id="8ngV8dPodzn89XrmvqAj-327" value="" style="endArrow=none;html=1;rounded=0;fillColor=#ffe6cc;strokeColor=#d79b00;" edge="1" parent="1" source="8ngV8dPodzn89XrmvqAj-315" target="8ngV8dPodzn89XrmvqAj-316">
          <mxGeometry width="50" height="50" relative="1" as="geometry">
            <mxPoint x="-1091" y="592" as="sourcePoint" />
            <mxPoint x="-1117" y="587" as="targetPoint" />
          </mxGeometry>
        </mxCell>
        <mxCell id="8ngV8dPodzn89XrmvqAj-328" value="" style="endArrow=none;html=1;rounded=0;fillColor=#ffe6cc;strokeColor=#d79b00;" edge="1" parent="1" source="8ngV8dPodzn89XrmvqAj-317" target="8ngV8dPodzn89XrmvqAj-316">
          <mxGeometry width="50" height="50" relative="1" as="geometry">
            <mxPoint x="-1081" y="602" as="sourcePoint" />
            <mxPoint x="-1107" y="597" as="targetPoint" />
          </mxGeometry>
        </mxCell>
        <mxCell id="8ngV8dPodzn89XrmvqAj-329" value="" style="ellipse;whiteSpace=wrap;html=1;aspect=fixed;" vertex="1" parent="1">
          <mxGeometry x="-1023" y="470" width="30" height="30" as="geometry" />
        </mxCell>
        <mxCell id="8ngV8dPodzn89XrmvqAj-331" value="" style="ellipse;whiteSpace=wrap;html=1;aspect=fixed;" vertex="1" parent="1">
          <mxGeometry x="-1251" y="470" width="30" height="30" as="geometry" />
        </mxCell>
        <mxCell id="8ngV8dPodzn89XrmvqAj-334" value="" style="endArrow=none;html=1;rounded=0;fillColor=#d5e8d4;strokeColor=#82b366;" edge="1" parent="1" source="8ngV8dPodzn89XrmvqAj-335" target="8ngV8dPodzn89XrmvqAj-311">
          <mxGeometry width="50" height="50" relative="1" as="geometry">
            <mxPoint x="-1123" y="540" as="sourcePoint" />
            <mxPoint x="-1217.2349503512764" y="587.644486504249" as="targetPoint" />
          </mxGeometry>
        </mxCell>
        <mxCell id="8ngV8dPodzn89XrmvqAj-335" value="" style="ellipse;whiteSpace=wrap;html=1;aspect=fixed;strokeColor=#82b366;fillColor=#d5e8d4;" vertex="1" parent="1">
          <mxGeometry x="-1191" y="579" width="30" height="30" as="geometry" />
        </mxCell>
        <mxCell id="8ngV8dPodzn89XrmvqAj-336" value="" style="ellipse;whiteSpace=wrap;html=1;aspect=fixed;strokeColor=#82b366;fillColor=#d5e8d4;" vertex="1" parent="1">
          <mxGeometry x="-1087" y="579" width="30" height="30" as="geometry" />
        </mxCell>
        <mxCell id="8ngV8dPodzn89XrmvqAj-337" value="" style="ellipse;whiteSpace=wrap;html=1;aspect=fixed;strokeColor=#82b366;fillColor=#d5e8d4;" vertex="1" parent="1">
          <mxGeometry x="-1191" y="618" width="30" height="30" as="geometry" />
        </mxCell>
        <mxCell id="8ngV8dPodzn89XrmvqAj-338" value="" style="ellipse;whiteSpace=wrap;html=1;aspect=fixed;strokeColor=#82b366;fillColor=#d5e8d4;" vertex="1" parent="1">
          <mxGeometry x="-1087" y="618" width="30" height="30" as="geometry" />
        </mxCell>
        <mxCell id="8ngV8dPodzn89XrmvqAj-339" value="" style="endArrow=none;html=1;rounded=0;fillColor=#d5e8d4;strokeColor=#82b366;" edge="1" parent="1" source="8ngV8dPodzn89XrmvqAj-337" target="8ngV8dPodzn89XrmvqAj-311">
          <mxGeometry width="50" height="50" relative="1" as="geometry">
            <mxPoint x="-1181" y="602" as="sourcePoint" />
            <mxPoint x="-1220.6476548834353" y="594.804298055215" as="targetPoint" />
          </mxGeometry>
        </mxCell>
        <mxCell id="8ngV8dPodzn89XrmvqAj-340" value="" style="endArrow=none;html=1;rounded=0;fillColor=#d5e8d4;strokeColor=#82b366;" edge="1" parent="1" source="8ngV8dPodzn89XrmvqAj-335" target="8ngV8dPodzn89XrmvqAj-331">
          <mxGeometry width="50" height="50" relative="1" as="geometry">
            <mxPoint x="-1171" y="612" as="sourcePoint" />
            <mxPoint x="-1220.0644360467477" y="628.9147199758827" as="targetPoint" />
          </mxGeometry>
        </mxCell>
        <mxCell id="8ngV8dPodzn89XrmvqAj-341" value="" style="endArrow=none;html=1;rounded=0;fillColor=#d5e8d4;strokeColor=#82b366;" edge="1" parent="1" source="8ngV8dPodzn89XrmvqAj-337" target="8ngV8dPodzn89XrmvqAj-331">
          <mxGeometry width="50" height="50" relative="1" as="geometry">
            <mxPoint x="-1161" y="622" as="sourcePoint" />
            <mxPoint x="-1217.0616019030276" y="636.6419638093662" as="targetPoint" />
          </mxGeometry>
        </mxCell>
        <mxCell id="8ngV8dPodzn89XrmvqAj-342" value="" style="endArrow=classicThin;html=1;rounded=0;fillColor=#d5e8d4;strokeColor=#82b366;endFill=1;" edge="1" parent="1" source="8ngV8dPodzn89XrmvqAj-336" target="8ngV8dPodzn89XrmvqAj-309">
          <mxGeometry width="50" height="50" relative="1" as="geometry">
            <mxPoint x="-1151" y="632" as="sourcePoint" />
            <mxPoint x="-1026.7959088574821" y="587.4659848095803" as="targetPoint" />
          </mxGeometry>
        </mxCell>
        <mxCell id="8ngV8dPodzn89XrmvqAj-343" value="" style="endArrow=classicThin;html=1;rounded=0;fillColor=#d5e8d4;strokeColor=#82b366;endFill=1;" edge="1" parent="1" source="8ngV8dPodzn89XrmvqAj-338" target="8ngV8dPodzn89XrmvqAj-309">
          <mxGeometry width="50" height="50" relative="1" as="geometry">
            <mxPoint x="-1141" y="642" as="sourcePoint" />
            <mxPoint x="-1023.760687366926" y="594.3105441654834" as="targetPoint" />
          </mxGeometry>
        </mxCell>
        <mxCell id="8ngV8dPodzn89XrmvqAj-344" value="" style="endArrow=classicThin;html=1;rounded=0;fillColor=#d5e8d4;strokeColor=#82b366;endFill=1;" edge="1" parent="1" source="8ngV8dPodzn89XrmvqAj-336" target="8ngV8dPodzn89XrmvqAj-329">
          <mxGeometry width="50" height="50" relative="1" as="geometry">
            <mxPoint x="-1131" y="652" as="sourcePoint" />
            <mxPoint x="-1024.2403672165833" y="629.3297398882532" as="targetPoint" />
          </mxGeometry>
        </mxCell>
        <mxCell id="8ngV8dPodzn89XrmvqAj-345" value="" style="endArrow=classicThin;html=1;rounded=0;fillColor=#d5e8d4;strokeColor=#82b366;startArrow=none;startFill=0;endFill=1;" edge="1" parent="1" source="8ngV8dPodzn89XrmvqAj-338" target="8ngV8dPodzn89XrmvqAj-329">
          <mxGeometry width="50" height="50" relative="1" as="geometry">
            <mxPoint x="-1121" y="662" as="sourcePoint" />
            <mxPoint x="-1026.9481863736996" y="636.7543178021917" as="targetPoint" />
          </mxGeometry>
        </mxCell>
        <mxCell id="8ngV8dPodzn89XrmvqAj-346" value="" style="endArrow=none;html=1;rounded=0;fillColor=#d5e8d4;strokeColor=#82b366;" edge="1" parent="1" source="8ngV8dPodzn89XrmvqAj-336" target="8ngV8dPodzn89XrmvqAj-335">
          <mxGeometry width="50" height="50" relative="1" as="geometry">
            <mxPoint x="-1111" y="672" as="sourcePoint" />
            <mxPoint x="-1137" y="667" as="targetPoint" />
          </mxGeometry>
        </mxCell>
        <mxCell id="8ngV8dPodzn89XrmvqAj-347" value="" style="endArrow=none;html=1;rounded=0;fillColor=#d5e8d4;strokeColor=#82b366;" edge="1" parent="1" source="8ngV8dPodzn89XrmvqAj-338" target="8ngV8dPodzn89XrmvqAj-335">
          <mxGeometry width="50" height="50" relative="1" as="geometry">
            <mxPoint x="-1101" y="682" as="sourcePoint" />
            <mxPoint x="-1127" y="677" as="targetPoint" />
          </mxGeometry>
        </mxCell>
        <mxCell id="8ngV8dPodzn89XrmvqAj-348" value="" style="endArrow=none;html=1;rounded=0;fillColor=#d5e8d4;strokeColor=#82b366;" edge="1" parent="1" source="8ngV8dPodzn89XrmvqAj-336" target="8ngV8dPodzn89XrmvqAj-337">
          <mxGeometry width="50" height="50" relative="1" as="geometry">
            <mxPoint x="-1091" y="692" as="sourcePoint" />
            <mxPoint x="-1117" y="687" as="targetPoint" />
          </mxGeometry>
        </mxCell>
        <mxCell id="8ngV8dPodzn89XrmvqAj-349" value="" style="endArrow=none;html=1;rounded=0;fillColor=#d5e8d4;strokeColor=#82b366;" edge="1" parent="1" source="8ngV8dPodzn89XrmvqAj-338" target="8ngV8dPodzn89XrmvqAj-337">
          <mxGeometry width="50" height="50" relative="1" as="geometry">
            <mxPoint x="-1081" y="702" as="sourcePoint" />
            <mxPoint x="-1107" y="697" as="targetPoint" />
          </mxGeometry>
        </mxCell>
        <mxCell id="8ngV8dPodzn89XrmvqAj-365" value="" style="endArrow=none;dashed=1;html=1;rounded=0;" edge="1" parent="1" source="8ngV8dPodzn89XrmvqAj-272" target="8ngV8dPodzn89XrmvqAj-294">
          <mxGeometry width="50" height="50" relative="1" as="geometry">
            <mxPoint x="-1115" y="355" as="sourcePoint" />
            <mxPoint x="-1033" y="435" as="targetPoint" />
          </mxGeometry>
        </mxCell>
        <mxCell id="8ngV8dPodzn89XrmvqAj-366" value="" style="endArrow=none;dashed=1;html=1;rounded=0;" edge="1" parent="1" source="8ngV8dPodzn89XrmvqAj-272" target="8ngV8dPodzn89XrmvqAj-296">
          <mxGeometry width="50" height="50" relative="1" as="geometry">
            <mxPoint x="-1105" y="365" as="sourcePoint" />
            <mxPoint x="-1023" y="445" as="targetPoint" />
          </mxGeometry>
        </mxCell>
        <mxCell id="8ngV8dPodzn89XrmvqAj-367" value="" style="endArrow=none;dashed=1;html=1;rounded=0;" edge="1" parent="1" source="8ngV8dPodzn89XrmvqAj-272" target="8ngV8dPodzn89XrmvqAj-315">
          <mxGeometry width="50" height="50" relative="1" as="geometry">
            <mxPoint x="-1095" y="375" as="sourcePoint" />
            <mxPoint x="-1013" y="455" as="targetPoint" />
          </mxGeometry>
        </mxCell>
        <mxCell id="8ngV8dPodzn89XrmvqAj-368" value="" style="endArrow=none;dashed=1;html=1;rounded=0;" edge="1" parent="1" source="8ngV8dPodzn89XrmvqAj-272" target="8ngV8dPodzn89XrmvqAj-317">
          <mxGeometry width="50" height="50" relative="1" as="geometry">
            <mxPoint x="-1085" y="385" as="sourcePoint" />
            <mxPoint x="-1003" y="465" as="targetPoint" />
          </mxGeometry>
        </mxCell>
        <mxCell id="8ngV8dPodzn89XrmvqAj-369" value="" style="endArrow=none;dashed=1;html=1;rounded=0;" edge="1" parent="1" source="8ngV8dPodzn89XrmvqAj-272" target="8ngV8dPodzn89XrmvqAj-336">
          <mxGeometry width="50" height="50" relative="1" as="geometry">
            <mxPoint x="-1075" y="395" as="sourcePoint" />
            <mxPoint x="-993" y="475" as="targetPoint" />
          </mxGeometry>
        </mxCell>
        <mxCell id="8ngV8dPodzn89XrmvqAj-370" value="" style="endArrow=none;dashed=1;html=1;rounded=0;" edge="1" parent="1" source="8ngV8dPodzn89XrmvqAj-272" target="8ngV8dPodzn89XrmvqAj-338">
          <mxGeometry width="50" height="50" relative="1" as="geometry">
            <mxPoint x="-1065" y="405" as="sourcePoint" />
            <mxPoint x="-983" y="485" as="targetPoint" />
          </mxGeometry>
        </mxCell>
        <mxCell id="8ngV8dPodzn89XrmvqAj-371" value="" style="endArrow=none;dashed=1;html=1;rounded=0;" edge="1" parent="1" source="8ngV8dPodzn89XrmvqAj-273" target="8ngV8dPodzn89XrmvqAj-293">
          <mxGeometry width="50" height="50" relative="1" as="geometry">
            <mxPoint x="-1055" y="415" as="sourcePoint" />
            <mxPoint x="-973" y="495" as="targetPoint" />
          </mxGeometry>
        </mxCell>
        <mxCell id="8ngV8dPodzn89XrmvqAj-373" value="" style="endArrow=none;dashed=1;html=1;rounded=0;" edge="1" parent="1" source="8ngV8dPodzn89XrmvqAj-273" target="8ngV8dPodzn89XrmvqAj-295">
          <mxGeometry width="50" height="50" relative="1" as="geometry">
            <mxPoint x="-1035" y="435" as="sourcePoint" />
            <mxPoint x="-953" y="515" as="targetPoint" />
          </mxGeometry>
        </mxCell>
        <mxCell id="8ngV8dPodzn89XrmvqAj-374" value="" style="endArrow=none;dashed=1;html=1;rounded=0;" edge="1" parent="1" source="8ngV8dPodzn89XrmvqAj-273" target="8ngV8dPodzn89XrmvqAj-314">
          <mxGeometry width="50" height="50" relative="1" as="geometry">
            <mxPoint x="-1025" y="445" as="sourcePoint" />
            <mxPoint x="-943" y="525" as="targetPoint" />
          </mxGeometry>
        </mxCell>
        <mxCell id="8ngV8dPodzn89XrmvqAj-375" value="" style="endArrow=none;dashed=1;html=1;rounded=0;" edge="1" parent="1" source="8ngV8dPodzn89XrmvqAj-273" target="8ngV8dPodzn89XrmvqAj-316">
          <mxGeometry width="50" height="50" relative="1" as="geometry">
            <mxPoint x="-1015" y="455" as="sourcePoint" />
            <mxPoint x="-933" y="535" as="targetPoint" />
          </mxGeometry>
        </mxCell>
        <mxCell id="8ngV8dPodzn89XrmvqAj-376" value="" style="endArrow=none;dashed=1;html=1;rounded=0;" edge="1" parent="1" source="8ngV8dPodzn89XrmvqAj-273" target="8ngV8dPodzn89XrmvqAj-335">
          <mxGeometry width="50" height="50" relative="1" as="geometry">
            <mxPoint x="-1005" y="465" as="sourcePoint" />
            <mxPoint x="-923" y="545" as="targetPoint" />
          </mxGeometry>
        </mxCell>
        <mxCell id="8ngV8dPodzn89XrmvqAj-377" value="" style="endArrow=none;dashed=1;html=1;rounded=0;" edge="1" parent="1" source="8ngV8dPodzn89XrmvqAj-273" target="8ngV8dPodzn89XrmvqAj-337">
          <mxGeometry width="50" height="50" relative="1" as="geometry">
            <mxPoint x="-995" y="475" as="sourcePoint" />
            <mxPoint x="-913" y="555" as="targetPoint" />
          </mxGeometry>
        </mxCell>
        <mxCell id="8ngV8dPodzn89XrmvqAj-378" value="" style="endArrow=none;dashed=1;html=1;rounded=0;" edge="1" parent="1" source="8ngV8dPodzn89XrmvqAj-274" target="8ngV8dPodzn89XrmvqAj-294">
          <mxGeometry width="50" height="50" relative="1" as="geometry">
            <mxPoint x="-985" y="485" as="sourcePoint" />
            <mxPoint x="-903" y="565" as="targetPoint" />
          </mxGeometry>
        </mxCell>
        <mxCell id="8ngV8dPodzn89XrmvqAj-379" value="" style="endArrow=none;dashed=1;html=1;rounded=0;" edge="1" parent="1" source="8ngV8dPodzn89XrmvqAj-274" target="8ngV8dPodzn89XrmvqAj-296">
          <mxGeometry width="50" height="50" relative="1" as="geometry">
            <mxPoint x="-975" y="495" as="sourcePoint" />
            <mxPoint x="-893" y="575" as="targetPoint" />
          </mxGeometry>
        </mxCell>
        <mxCell id="8ngV8dPodzn89XrmvqAj-380" value="" style="endArrow=none;dashed=1;html=1;rounded=0;" edge="1" parent="1" source="8ngV8dPodzn89XrmvqAj-274" target="8ngV8dPodzn89XrmvqAj-315">
          <mxGeometry width="50" height="50" relative="1" as="geometry">
            <mxPoint x="-965" y="505" as="sourcePoint" />
            <mxPoint x="-883" y="585" as="targetPoint" />
          </mxGeometry>
        </mxCell>
        <mxCell id="8ngV8dPodzn89XrmvqAj-381" value="" style="endArrow=none;dashed=1;html=1;rounded=0;" edge="1" parent="1" source="8ngV8dPodzn89XrmvqAj-274" target="8ngV8dPodzn89XrmvqAj-317">
          <mxGeometry width="50" height="50" relative="1" as="geometry">
            <mxPoint x="-955" y="515" as="sourcePoint" />
            <mxPoint x="-873" y="595" as="targetPoint" />
          </mxGeometry>
        </mxCell>
        <mxCell id="8ngV8dPodzn89XrmvqAj-382" value="" style="endArrow=none;dashed=1;html=1;rounded=0;" edge="1" parent="1" source="8ngV8dPodzn89XrmvqAj-274" target="8ngV8dPodzn89XrmvqAj-336">
          <mxGeometry width="50" height="50" relative="1" as="geometry">
            <mxPoint x="-945" y="525" as="sourcePoint" />
            <mxPoint x="-863" y="605" as="targetPoint" />
          </mxGeometry>
        </mxCell>
        <mxCell id="8ngV8dPodzn89XrmvqAj-383" value="" style="endArrow=none;dashed=1;html=1;rounded=0;" edge="1" parent="1" source="8ngV8dPodzn89XrmvqAj-274" target="8ngV8dPodzn89XrmvqAj-338">
          <mxGeometry width="50" height="50" relative="1" as="geometry">
            <mxPoint x="-935" y="535" as="sourcePoint" />
            <mxPoint x="-853" y="615" as="targetPoint" />
          </mxGeometry>
        </mxCell>
        <mxCell id="8ngV8dPodzn89XrmvqAj-385" value="" style="endArrow=none;dashed=1;html=1;rounded=0;" edge="1" parent="1" source="8ngV8dPodzn89XrmvqAj-275" target="8ngV8dPodzn89XrmvqAj-293">
          <mxGeometry width="50" height="50" relative="1" as="geometry">
            <mxPoint x="-915" y="555" as="sourcePoint" />
            <mxPoint x="-833" y="635" as="targetPoint" />
          </mxGeometry>
        </mxCell>
        <mxCell id="8ngV8dPodzn89XrmvqAj-386" value="" style="endArrow=none;dashed=1;html=1;rounded=0;" edge="1" parent="1" source="8ngV8dPodzn89XrmvqAj-275" target="8ngV8dPodzn89XrmvqAj-295">
          <mxGeometry width="50" height="50" relative="1" as="geometry">
            <mxPoint x="-905" y="565" as="sourcePoint" />
            <mxPoint x="-823" y="645" as="targetPoint" />
          </mxGeometry>
        </mxCell>
        <mxCell id="8ngV8dPodzn89XrmvqAj-387" value="" style="endArrow=none;dashed=1;html=1;rounded=0;" edge="1" parent="1" source="8ngV8dPodzn89XrmvqAj-275" target="8ngV8dPodzn89XrmvqAj-314">
          <mxGeometry width="50" height="50" relative="1" as="geometry">
            <mxPoint x="-895" y="575" as="sourcePoint" />
            <mxPoint x="-813" y="655" as="targetPoint" />
          </mxGeometry>
        </mxCell>
        <mxCell id="8ngV8dPodzn89XrmvqAj-395" value="" style="endArrow=none;dashed=1;html=1;rounded=0;" edge="1" parent="1" source="8ngV8dPodzn89XrmvqAj-275" target="8ngV8dPodzn89XrmvqAj-316">
          <mxGeometry width="50" height="50" relative="1" as="geometry">
            <mxPoint x="-1155" y="315" as="sourcePoint" />
            <mxPoint x="-1073" y="395" as="targetPoint" />
          </mxGeometry>
        </mxCell>
        <mxCell id="8ngV8dPodzn89XrmvqAj-396" value="" style="endArrow=none;dashed=1;html=1;rounded=0;" edge="1" parent="1" source="8ngV8dPodzn89XrmvqAj-275" target="8ngV8dPodzn89XrmvqAj-335">
          <mxGeometry width="50" height="50" relative="1" as="geometry">
            <mxPoint x="-1145" y="325" as="sourcePoint" />
            <mxPoint x="-1063" y="405" as="targetPoint" />
          </mxGeometry>
        </mxCell>
        <mxCell id="8ngV8dPodzn89XrmvqAj-397" value="" style="endArrow=none;dashed=1;html=1;rounded=0;" edge="1" parent="1" source="8ngV8dPodzn89XrmvqAj-275" target="8ngV8dPodzn89XrmvqAj-337">
          <mxGeometry width="50" height="50" relative="1" as="geometry">
            <mxPoint x="-1135" y="335" as="sourcePoint" />
            <mxPoint x="-1053" y="415" as="targetPoint" />
          </mxGeometry>
        </mxCell>
        <mxCell id="8ngV8dPodzn89XrmvqAj-398" value="" style="rounded=0;whiteSpace=wrap;html=1;fillColor=#f8cecc;strokeColor=#b85450;" vertex="1" parent="1">
          <mxGeometry x="-867" y="270" width="150" height="390" as="geometry" />
        </mxCell>
        <mxCell id="8ngV8dPodzn89XrmvqAj-399" value="" style="endArrow=none;html=1;rounded=0;fillColor=#f8cecc;strokeColor=#b85450;" edge="1" parent="1" source="8ngV8dPodzn89XrmvqAj-400" target="8ngV8dPodzn89XrmvqAj-432">
          <mxGeometry width="50" height="50" relative="1" as="geometry">
            <mxPoint x="-793" y="240" as="sourcePoint" />
            <mxPoint x="-887.2349503512764" y="287.6444865042489" as="targetPoint" />
          </mxGeometry>
        </mxCell>
        <mxCell id="8ngV8dPodzn89XrmvqAj-400" value="" style="ellipse;whiteSpace=wrap;html=1;aspect=fixed;strokeColor=#b85450;fillColor=#f8cecc;" vertex="1" parent="1">
          <mxGeometry x="-861" y="279" width="30" height="30" as="geometry" />
        </mxCell>
        <mxCell id="8ngV8dPodzn89XrmvqAj-401" value="" style="ellipse;whiteSpace=wrap;html=1;aspect=fixed;strokeColor=#b85450;fillColor=#f8cecc;" vertex="1" parent="1">
          <mxGeometry x="-757" y="279" width="30" height="30" as="geometry" />
        </mxCell>
        <mxCell id="8ngV8dPodzn89XrmvqAj-402" value="" style="ellipse;whiteSpace=wrap;html=1;aspect=fixed;strokeColor=#b85450;fillColor=#f8cecc;" vertex="1" parent="1">
          <mxGeometry x="-861" y="318" width="30" height="30" as="geometry" />
        </mxCell>
        <mxCell id="8ngV8dPodzn89XrmvqAj-403" value="" style="ellipse;whiteSpace=wrap;html=1;aspect=fixed;strokeColor=#b85450;fillColor=#f8cecc;" vertex="1" parent="1">
          <mxGeometry x="-757" y="318" width="30" height="30" as="geometry" />
        </mxCell>
        <mxCell id="8ngV8dPodzn89XrmvqAj-404" value="" style="endArrow=none;html=1;rounded=0;fillColor=#f8cecc;strokeColor=#b85450;" edge="1" parent="1" source="8ngV8dPodzn89XrmvqAj-402" target="8ngV8dPodzn89XrmvqAj-432">
          <mxGeometry width="50" height="50" relative="1" as="geometry">
            <mxPoint x="-851" y="302" as="sourcePoint" />
            <mxPoint x="-890.6476548834353" y="294.804298055215" as="targetPoint" />
          </mxGeometry>
        </mxCell>
        <mxCell id="8ngV8dPodzn89XrmvqAj-405" value="" style="endArrow=none;html=1;rounded=0;fillColor=#f8cecc;strokeColor=#b85450;" edge="1" parent="1" source="8ngV8dPodzn89XrmvqAj-400" target="8ngV8dPodzn89XrmvqAj-450">
          <mxGeometry width="50" height="50" relative="1" as="geometry">
            <mxPoint x="-841" y="312" as="sourcePoint" />
            <mxPoint x="-890.0644360467477" y="328.9147199758827" as="targetPoint" />
          </mxGeometry>
        </mxCell>
        <mxCell id="8ngV8dPodzn89XrmvqAj-406" value="" style="endArrow=none;html=1;rounded=0;fillColor=#f8cecc;strokeColor=#b85450;" edge="1" parent="1" source="8ngV8dPodzn89XrmvqAj-402" target="8ngV8dPodzn89XrmvqAj-450">
          <mxGeometry width="50" height="50" relative="1" as="geometry">
            <mxPoint x="-831" y="322" as="sourcePoint" />
            <mxPoint x="-887.0616019030276" y="336.6419638093662" as="targetPoint" />
          </mxGeometry>
        </mxCell>
        <mxCell id="8ngV8dPodzn89XrmvqAj-407" value="" style="endArrow=classicThin;html=1;rounded=0;fillColor=#f8cecc;strokeColor=#b85450;startArrow=none;startFill=0;elbow=vertical;endFill=1;" edge="1" parent="1" source="8ngV8dPodzn89XrmvqAj-401" target="8ngV8dPodzn89XrmvqAj-431">
          <mxGeometry width="50" height="50" relative="1" as="geometry">
            <mxPoint x="-821" y="332" as="sourcePoint" />
            <mxPoint x="-696.7959088574821" y="287.4659848095803" as="targetPoint" />
          </mxGeometry>
        </mxCell>
        <mxCell id="8ngV8dPodzn89XrmvqAj-408" value="" style="endArrow=classicThin;html=1;rounded=0;fillColor=#f8cecc;strokeColor=#b85450;endFill=1;" edge="1" parent="1" source="8ngV8dPodzn89XrmvqAj-403" target="8ngV8dPodzn89XrmvqAj-431">
          <mxGeometry width="50" height="50" relative="1" as="geometry">
            <mxPoint x="-811" y="342" as="sourcePoint" />
            <mxPoint x="-693.760687366926" y="294.3105441654833" as="targetPoint" />
          </mxGeometry>
        </mxCell>
        <mxCell id="8ngV8dPodzn89XrmvqAj-409" value="" style="endArrow=classicThin;html=1;rounded=0;fillColor=#f8cecc;strokeColor=#b85450;endFill=1;" edge="1" parent="1" source="8ngV8dPodzn89XrmvqAj-401" target="8ngV8dPodzn89XrmvqAj-449">
          <mxGeometry width="50" height="50" relative="1" as="geometry">
            <mxPoint x="-801" y="352" as="sourcePoint" />
            <mxPoint x="-694.2403672165833" y="329.32973988825324" as="targetPoint" />
          </mxGeometry>
        </mxCell>
        <mxCell id="8ngV8dPodzn89XrmvqAj-410" value="" style="endArrow=classicThin;html=1;rounded=0;fillColor=#f8cecc;strokeColor=#b85450;endFill=1;" edge="1" parent="1" source="8ngV8dPodzn89XrmvqAj-403" target="8ngV8dPodzn89XrmvqAj-449">
          <mxGeometry width="50" height="50" relative="1" as="geometry">
            <mxPoint x="-791" y="362" as="sourcePoint" />
            <mxPoint x="-696.9481863736996" y="336.75431780219174" as="targetPoint" />
          </mxGeometry>
        </mxCell>
        <mxCell id="8ngV8dPodzn89XrmvqAj-411" value="" style="endArrow=none;html=1;rounded=0;fillColor=#f8cecc;strokeColor=#b85450;" edge="1" parent="1" source="8ngV8dPodzn89XrmvqAj-401" target="8ngV8dPodzn89XrmvqAj-400">
          <mxGeometry width="50" height="50" relative="1" as="geometry">
            <mxPoint x="-781" y="372" as="sourcePoint" />
            <mxPoint x="-807" y="367" as="targetPoint" />
          </mxGeometry>
        </mxCell>
        <mxCell id="8ngV8dPodzn89XrmvqAj-412" value="" style="endArrow=none;html=1;rounded=0;fillColor=#f8cecc;strokeColor=#b85450;" edge="1" parent="1" source="8ngV8dPodzn89XrmvqAj-403" target="8ngV8dPodzn89XrmvqAj-400">
          <mxGeometry width="50" height="50" relative="1" as="geometry">
            <mxPoint x="-771" y="382" as="sourcePoint" />
            <mxPoint x="-797" y="377" as="targetPoint" />
          </mxGeometry>
        </mxCell>
        <mxCell id="8ngV8dPodzn89XrmvqAj-413" value="" style="endArrow=none;html=1;rounded=0;fillColor=#f8cecc;strokeColor=#b85450;" edge="1" parent="1" source="8ngV8dPodzn89XrmvqAj-401" target="8ngV8dPodzn89XrmvqAj-402">
          <mxGeometry width="50" height="50" relative="1" as="geometry">
            <mxPoint x="-761" y="392" as="sourcePoint" />
            <mxPoint x="-787" y="387" as="targetPoint" />
          </mxGeometry>
        </mxCell>
        <mxCell id="8ngV8dPodzn89XrmvqAj-414" value="" style="endArrow=none;html=1;rounded=0;fillColor=#f8cecc;strokeColor=#b85450;" edge="1" parent="1">
          <mxGeometry width="50" height="50" relative="1" as="geometry">
            <mxPoint x="-787.0000000000032" y="503" as="sourcePoint" />
            <mxPoint x="-861.999999999997" y="503" as="targetPoint" />
          </mxGeometry>
        </mxCell>
        <mxCell id="8ngV8dPodzn89XrmvqAj-415" value="" style="endArrow=none;html=1;rounded=0;fillColor=#dae8fc;strokeColor=#6c8ebf;" edge="1" parent="1" source="8ngV8dPodzn89XrmvqAj-416" target="8ngV8dPodzn89XrmvqAj-432">
          <mxGeometry width="50" height="50" relative="1" as="geometry">
            <mxPoint x="-793" y="340" as="sourcePoint" />
            <mxPoint x="-887.2349503512764" y="387.6444865042489" as="targetPoint" />
          </mxGeometry>
        </mxCell>
        <mxCell id="8ngV8dPodzn89XrmvqAj-416" value="" style="ellipse;whiteSpace=wrap;html=1;aspect=fixed;strokeColor=#6c8ebf;fillColor=#dae8fc;" vertex="1" parent="1">
          <mxGeometry x="-861" y="379" width="30" height="30" as="geometry" />
        </mxCell>
        <mxCell id="8ngV8dPodzn89XrmvqAj-417" value="" style="ellipse;whiteSpace=wrap;html=1;aspect=fixed;strokeColor=#6c8ebf;fillColor=#dae8fc;" vertex="1" parent="1">
          <mxGeometry x="-757" y="379" width="30" height="30" as="geometry" />
        </mxCell>
        <mxCell id="8ngV8dPodzn89XrmvqAj-418" value="" style="ellipse;whiteSpace=wrap;html=1;aspect=fixed;strokeColor=#6c8ebf;fillColor=#dae8fc;" vertex="1" parent="1">
          <mxGeometry x="-861" y="418" width="30" height="30" as="geometry" />
        </mxCell>
        <mxCell id="8ngV8dPodzn89XrmvqAj-419" value="" style="ellipse;whiteSpace=wrap;html=1;aspect=fixed;strokeColor=#6c8ebf;fillColor=#dae8fc;" vertex="1" parent="1">
          <mxGeometry x="-757" y="418" width="30" height="30" as="geometry" />
        </mxCell>
        <mxCell id="8ngV8dPodzn89XrmvqAj-420" value="" style="endArrow=none;html=1;rounded=0;fillColor=#dae8fc;strokeColor=#6c8ebf;" edge="1" parent="1" source="8ngV8dPodzn89XrmvqAj-418" target="8ngV8dPodzn89XrmvqAj-432">
          <mxGeometry width="50" height="50" relative="1" as="geometry">
            <mxPoint x="-851" y="402" as="sourcePoint" />
            <mxPoint x="-890.6476548834353" y="394.804298055215" as="targetPoint" />
          </mxGeometry>
        </mxCell>
        <mxCell id="8ngV8dPodzn89XrmvqAj-421" value="" style="endArrow=none;html=1;rounded=0;fillColor=#dae8fc;strokeColor=#6c8ebf;" edge="1" parent="1" source="8ngV8dPodzn89XrmvqAj-416" target="8ngV8dPodzn89XrmvqAj-450">
          <mxGeometry width="50" height="50" relative="1" as="geometry">
            <mxPoint x="-841" y="412" as="sourcePoint" />
            <mxPoint x="-891.0505077524799" y="428.9329499443104" as="targetPoint" />
          </mxGeometry>
        </mxCell>
        <mxCell id="8ngV8dPodzn89XrmvqAj-422" value="" style="endArrow=none;html=1;rounded=0;fillColor=#dae8fc;strokeColor=#6c8ebf;" edge="1" parent="1" source="8ngV8dPodzn89XrmvqAj-418" target="8ngV8dPodzn89XrmvqAj-450">
          <mxGeometry width="50" height="50" relative="1" as="geometry">
            <mxPoint x="-831" y="422" as="sourcePoint" />
            <mxPoint x="-887.175441986345" y="438.3567255981793" as="targetPoint" />
          </mxGeometry>
        </mxCell>
        <mxCell id="8ngV8dPodzn89XrmvqAj-423" value="" style="endArrow=classicThin;html=1;rounded=0;fillColor=#dae8fc;strokeColor=#6c8ebf;endFill=1;" edge="1" parent="1" source="8ngV8dPodzn89XrmvqAj-417" target="8ngV8dPodzn89XrmvqAj-449">
          <mxGeometry width="50" height="50" relative="1" as="geometry">
            <mxPoint x="-821" y="432" as="sourcePoint" />
            <mxPoint x="-696.7959088574821" y="387.4659848095803" as="targetPoint" />
          </mxGeometry>
        </mxCell>
        <mxCell id="8ngV8dPodzn89XrmvqAj-424" value="" style="endArrow=classicThin;html=1;rounded=0;fillColor=#dae8fc;strokeColor=#6c8ebf;endFill=1;" edge="1" parent="1" source="8ngV8dPodzn89XrmvqAj-419" target="8ngV8dPodzn89XrmvqAj-431">
          <mxGeometry width="50" height="50" relative="1" as="geometry">
            <mxPoint x="-811" y="442" as="sourcePoint" />
            <mxPoint x="-693.760687366926" y="394.3105441654833" as="targetPoint" />
          </mxGeometry>
        </mxCell>
        <mxCell id="8ngV8dPodzn89XrmvqAj-425" value="" style="endArrow=classicThin;html=1;rounded=0;fillColor=#dae8fc;strokeColor=#6c8ebf;endFill=1;" edge="1" parent="1" source="8ngV8dPodzn89XrmvqAj-417" target="8ngV8dPodzn89XrmvqAj-431">
          <mxGeometry width="50" height="50" relative="1" as="geometry">
            <mxPoint x="-801" y="452" as="sourcePoint" />
            <mxPoint x="-693.308610053092" y="429.42290027095316" as="targetPoint" />
          </mxGeometry>
        </mxCell>
        <mxCell id="8ngV8dPodzn89XrmvqAj-426" value="" style="endArrow=classicThin;html=1;rounded=0;fillColor=#dae8fc;strokeColor=#6c8ebf;endFill=1;" edge="1" parent="1" source="8ngV8dPodzn89XrmvqAj-419" target="8ngV8dPodzn89XrmvqAj-449">
          <mxGeometry width="50" height="50" relative="1" as="geometry">
            <mxPoint x="-791" y="462" as="sourcePoint" />
            <mxPoint x="-696.8493046644328" y="438.5494685599466" as="targetPoint" />
          </mxGeometry>
        </mxCell>
        <mxCell id="8ngV8dPodzn89XrmvqAj-427" value="" style="endArrow=none;html=1;rounded=0;fillColor=#dae8fc;strokeColor=#6c8ebf;" edge="1" parent="1" source="8ngV8dPodzn89XrmvqAj-417" target="8ngV8dPodzn89XrmvqAj-416">
          <mxGeometry width="50" height="50" relative="1" as="geometry">
            <mxPoint x="-781" y="472" as="sourcePoint" />
            <mxPoint x="-807" y="467" as="targetPoint" />
          </mxGeometry>
        </mxCell>
        <mxCell id="8ngV8dPodzn89XrmvqAj-428" value="" style="endArrow=none;html=1;rounded=0;fillColor=#dae8fc;strokeColor=#6c8ebf;" edge="1" parent="1" source="8ngV8dPodzn89XrmvqAj-419" target="8ngV8dPodzn89XrmvqAj-416">
          <mxGeometry width="50" height="50" relative="1" as="geometry">
            <mxPoint x="-771" y="482" as="sourcePoint" />
            <mxPoint x="-797" y="477" as="targetPoint" />
          </mxGeometry>
        </mxCell>
        <mxCell id="8ngV8dPodzn89XrmvqAj-429" value="" style="endArrow=none;html=1;rounded=0;fillColor=#dae8fc;strokeColor=#6c8ebf;" edge="1" parent="1" source="8ngV8dPodzn89XrmvqAj-417" target="8ngV8dPodzn89XrmvqAj-418">
          <mxGeometry width="50" height="50" relative="1" as="geometry">
            <mxPoint x="-761" y="492" as="sourcePoint" />
            <mxPoint x="-787" y="487" as="targetPoint" />
          </mxGeometry>
        </mxCell>
        <mxCell id="8ngV8dPodzn89XrmvqAj-430" value="" style="endArrow=none;html=1;rounded=0;fillColor=#dae8fc;strokeColor=#6c8ebf;" edge="1" parent="1" source="8ngV8dPodzn89XrmvqAj-419" target="8ngV8dPodzn89XrmvqAj-418">
          <mxGeometry width="50" height="50" relative="1" as="geometry">
            <mxPoint x="-751" y="502" as="sourcePoint" />
            <mxPoint x="-777" y="497" as="targetPoint" />
          </mxGeometry>
        </mxCell>
        <mxCell id="8ngV8dPodzn89XrmvqAj-431" value="" style="ellipse;whiteSpace=wrap;html=1;aspect=fixed;" vertex="1" parent="1">
          <mxGeometry x="-695" y="423" width="30" height="30" as="geometry" />
        </mxCell>
        <mxCell id="8ngV8dPodzn89XrmvqAj-432" value="" style="ellipse;whiteSpace=wrap;html=1;aspect=fixed;" vertex="1" parent="1">
          <mxGeometry x="-921" y="423" width="30" height="30" as="geometry" />
        </mxCell>
        <mxCell id="8ngV8dPodzn89XrmvqAj-433" value="" style="endArrow=none;html=1;rounded=0;fillColor=#ffe6cc;strokeColor=#d79b00;" edge="1" parent="1" source="8ngV8dPodzn89XrmvqAj-434" target="8ngV8dPodzn89XrmvqAj-450">
          <mxGeometry width="50" height="50" relative="1" as="geometry">
            <mxPoint x="-793" y="440" as="sourcePoint" />
            <mxPoint x="-887.37851943447" y="486.87266063793356" as="targetPoint" />
          </mxGeometry>
        </mxCell>
        <mxCell id="8ngV8dPodzn89XrmvqAj-434" value="" style="ellipse;whiteSpace=wrap;html=1;aspect=fixed;strokeColor=#d79b00;fillColor=#ffe6cc;" vertex="1" parent="1">
          <mxGeometry x="-861" y="479" width="30" height="30" as="geometry" />
        </mxCell>
        <mxCell id="8ngV8dPodzn89XrmvqAj-435" value="" style="ellipse;whiteSpace=wrap;html=1;aspect=fixed;strokeColor=#d79b00;fillColor=#ffe6cc;" vertex="1" parent="1">
          <mxGeometry x="-757" y="479" width="30" height="30" as="geometry" />
        </mxCell>
        <mxCell id="8ngV8dPodzn89XrmvqAj-436" value="" style="ellipse;whiteSpace=wrap;html=1;aspect=fixed;strokeColor=#d79b00;fillColor=#ffe6cc;" vertex="1" parent="1">
          <mxGeometry x="-861" y="518" width="30" height="30" as="geometry" />
        </mxCell>
        <mxCell id="8ngV8dPodzn89XrmvqAj-437" value="" style="ellipse;whiteSpace=wrap;html=1;aspect=fixed;strokeColor=#d79b00;fillColor=#ffe6cc;" vertex="1" parent="1">
          <mxGeometry x="-757" y="518" width="30" height="30" as="geometry" />
        </mxCell>
        <mxCell id="8ngV8dPodzn89XrmvqAj-438" value="" style="endArrow=none;html=1;rounded=0;fillColor=#ffe6cc;strokeColor=#d79b00;" edge="1" parent="1" source="8ngV8dPodzn89XrmvqAj-436" target="8ngV8dPodzn89XrmvqAj-450">
          <mxGeometry width="50" height="50" relative="1" as="geometry">
            <mxPoint x="-851" y="502" as="sourcePoint" />
            <mxPoint x="-891.6355744080452" y="495.8036879932955" as="targetPoint" />
          </mxGeometry>
        </mxCell>
        <mxCell id="8ngV8dPodzn89XrmvqAj-439" value="" style="endArrow=none;html=1;rounded=0;fillColor=#ffe6cc;strokeColor=#d79b00;" edge="1" parent="1" source="8ngV8dPodzn89XrmvqAj-434" target="8ngV8dPodzn89XrmvqAj-432">
          <mxGeometry width="50" height="50" relative="1" as="geometry">
            <mxPoint x="-841" y="512" as="sourcePoint" />
            <mxPoint x="-890.0644360467477" y="528.9147199758827" as="targetPoint" />
          </mxGeometry>
        </mxCell>
        <mxCell id="8ngV8dPodzn89XrmvqAj-440" value="" style="endArrow=none;html=1;rounded=0;fillColor=#ffe6cc;strokeColor=#d79b00;" edge="1" parent="1" source="8ngV8dPodzn89XrmvqAj-436" target="8ngV8dPodzn89XrmvqAj-432">
          <mxGeometry width="50" height="50" relative="1" as="geometry">
            <mxPoint x="-831" y="522" as="sourcePoint" />
            <mxPoint x="-887.0616019030276" y="536.6419638093662" as="targetPoint" />
          </mxGeometry>
        </mxCell>
        <mxCell id="8ngV8dPodzn89XrmvqAj-441" value="" style="endArrow=classicThin;html=1;rounded=0;fillColor=#ffe6cc;strokeColor=#d79b00;endFill=1;" edge="1" parent="1" source="8ngV8dPodzn89XrmvqAj-435" target="8ngV8dPodzn89XrmvqAj-449">
          <mxGeometry width="50" height="50" relative="1" as="geometry">
            <mxPoint x="-821" y="532" as="sourcePoint" />
            <mxPoint x="-696.6656400997076" y="486.64178520364953" as="targetPoint" />
          </mxGeometry>
        </mxCell>
        <mxCell id="8ngV8dPodzn89XrmvqAj-442" value="" style="endArrow=classicThin;html=1;rounded=0;fillColor=#ffe6cc;strokeColor=#d79b00;endFill=1;" edge="1" parent="1" source="8ngV8dPodzn89XrmvqAj-437" target="8ngV8dPodzn89XrmvqAj-449">
          <mxGeometry width="50" height="50" relative="1" as="geometry">
            <mxPoint x="-811" y="542" as="sourcePoint" />
            <mxPoint x="-692.8342944264225" y="495.2178197734738" as="targetPoint" />
          </mxGeometry>
        </mxCell>
        <mxCell id="8ngV8dPodzn89XrmvqAj-443" value="" style="endArrow=classicThin;html=1;rounded=0;fillColor=#ffe6cc;strokeColor=#d79b00;endFill=1;" edge="1" parent="1" source="8ngV8dPodzn89XrmvqAj-435" target="8ngV8dPodzn89XrmvqAj-431">
          <mxGeometry width="50" height="50" relative="1" as="geometry">
            <mxPoint x="-801" y="552" as="sourcePoint" />
            <mxPoint x="-694.2403672165833" y="529.3297398882532" as="targetPoint" />
          </mxGeometry>
        </mxCell>
        <mxCell id="8ngV8dPodzn89XrmvqAj-444" value="" style="endArrow=classicThin;html=1;rounded=0;fillColor=#ffe6cc;strokeColor=#d79b00;endFill=1;" edge="1" parent="1" source="8ngV8dPodzn89XrmvqAj-437" target="8ngV8dPodzn89XrmvqAj-431">
          <mxGeometry width="50" height="50" relative="1" as="geometry">
            <mxPoint x="-791" y="562" as="sourcePoint" />
            <mxPoint x="-696.9481863736996" y="536.7543178021917" as="targetPoint" />
          </mxGeometry>
        </mxCell>
        <mxCell id="8ngV8dPodzn89XrmvqAj-445" value="" style="endArrow=none;html=1;rounded=0;fillColor=#ffe6cc;strokeColor=#d79b00;" edge="1" parent="1" source="8ngV8dPodzn89XrmvqAj-435" target="8ngV8dPodzn89XrmvqAj-434">
          <mxGeometry width="50" height="50" relative="1" as="geometry">
            <mxPoint x="-781" y="572" as="sourcePoint" />
            <mxPoint x="-807" y="567" as="targetPoint" />
          </mxGeometry>
        </mxCell>
        <mxCell id="8ngV8dPodzn89XrmvqAj-446" value="" style="endArrow=none;html=1;rounded=0;fillColor=#ffe6cc;strokeColor=#d79b00;" edge="1" parent="1" source="8ngV8dPodzn89XrmvqAj-437" target="8ngV8dPodzn89XrmvqAj-434">
          <mxGeometry width="50" height="50" relative="1" as="geometry">
            <mxPoint x="-771" y="582" as="sourcePoint" />
            <mxPoint x="-797" y="577" as="targetPoint" />
          </mxGeometry>
        </mxCell>
        <mxCell id="8ngV8dPodzn89XrmvqAj-447" value="" style="endArrow=none;html=1;rounded=0;fillColor=#ffe6cc;strokeColor=#d79b00;" edge="1" parent="1" source="8ngV8dPodzn89XrmvqAj-435" target="8ngV8dPodzn89XrmvqAj-436">
          <mxGeometry width="50" height="50" relative="1" as="geometry">
            <mxPoint x="-761" y="592" as="sourcePoint" />
            <mxPoint x="-787" y="587" as="targetPoint" />
          </mxGeometry>
        </mxCell>
        <mxCell id="8ngV8dPodzn89XrmvqAj-448" value="" style="endArrow=none;html=1;rounded=0;fillColor=#ffe6cc;strokeColor=#d79b00;" edge="1" parent="1" source="8ngV8dPodzn89XrmvqAj-437" target="8ngV8dPodzn89XrmvqAj-436">
          <mxGeometry width="50" height="50" relative="1" as="geometry">
            <mxPoint x="-751" y="602" as="sourcePoint" />
            <mxPoint x="-777" y="597" as="targetPoint" />
          </mxGeometry>
        </mxCell>
        <mxCell id="8ngV8dPodzn89XrmvqAj-449" value="" style="ellipse;whiteSpace=wrap;html=1;aspect=fixed;" vertex="1" parent="1">
          <mxGeometry x="-693" y="470" width="30" height="30" as="geometry" />
        </mxCell>
        <mxCell id="8ngV8dPodzn89XrmvqAj-450" value="" style="ellipse;whiteSpace=wrap;html=1;aspect=fixed;" vertex="1" parent="1">
          <mxGeometry x="-921" y="470" width="30" height="30" as="geometry" />
        </mxCell>
        <mxCell id="8ngV8dPodzn89XrmvqAj-451" value="" style="endArrow=none;html=1;rounded=0;fillColor=#d5e8d4;strokeColor=#82b366;" edge="1" parent="1" source="8ngV8dPodzn89XrmvqAj-452" target="8ngV8dPodzn89XrmvqAj-432">
          <mxGeometry width="50" height="50" relative="1" as="geometry">
            <mxPoint x="-793" y="540" as="sourcePoint" />
            <mxPoint x="-887.2349503512764" y="587.644486504249" as="targetPoint" />
          </mxGeometry>
        </mxCell>
        <mxCell id="8ngV8dPodzn89XrmvqAj-452" value="" style="ellipse;whiteSpace=wrap;html=1;aspect=fixed;strokeColor=#82b366;fillColor=#d5e8d4;" vertex="1" parent="1">
          <mxGeometry x="-861" y="579" width="30" height="30" as="geometry" />
        </mxCell>
        <mxCell id="8ngV8dPodzn89XrmvqAj-453" value="" style="ellipse;whiteSpace=wrap;html=1;aspect=fixed;strokeColor=#82b366;fillColor=#d5e8d4;" vertex="1" parent="1">
          <mxGeometry x="-757" y="579" width="30" height="30" as="geometry" />
        </mxCell>
        <mxCell id="8ngV8dPodzn89XrmvqAj-454" value="" style="ellipse;whiteSpace=wrap;html=1;aspect=fixed;strokeColor=#82b366;fillColor=#d5e8d4;" vertex="1" parent="1">
          <mxGeometry x="-861" y="618" width="30" height="30" as="geometry" />
        </mxCell>
        <mxCell id="8ngV8dPodzn89XrmvqAj-455" value="" style="ellipse;whiteSpace=wrap;html=1;aspect=fixed;strokeColor=#82b366;fillColor=#d5e8d4;" vertex="1" parent="1">
          <mxGeometry x="-757" y="618" width="30" height="30" as="geometry" />
        </mxCell>
        <mxCell id="8ngV8dPodzn89XrmvqAj-456" value="" style="endArrow=none;html=1;rounded=0;fillColor=#d5e8d4;strokeColor=#82b366;" edge="1" parent="1" source="8ngV8dPodzn89XrmvqAj-454" target="8ngV8dPodzn89XrmvqAj-432">
          <mxGeometry width="50" height="50" relative="1" as="geometry">
            <mxPoint x="-851" y="602" as="sourcePoint" />
            <mxPoint x="-890.6476548834353" y="594.804298055215" as="targetPoint" />
          </mxGeometry>
        </mxCell>
        <mxCell id="8ngV8dPodzn89XrmvqAj-457" value="" style="endArrow=none;html=1;rounded=0;fillColor=#d5e8d4;strokeColor=#82b366;" edge="1" parent="1" source="8ngV8dPodzn89XrmvqAj-452" target="8ngV8dPodzn89XrmvqAj-450">
          <mxGeometry width="50" height="50" relative="1" as="geometry">
            <mxPoint x="-841" y="612" as="sourcePoint" />
            <mxPoint x="-890.0644360467477" y="628.9147199758827" as="targetPoint" />
          </mxGeometry>
        </mxCell>
        <mxCell id="8ngV8dPodzn89XrmvqAj-458" value="" style="endArrow=none;html=1;rounded=0;fillColor=#d5e8d4;strokeColor=#82b366;" edge="1" parent="1" source="8ngV8dPodzn89XrmvqAj-454" target="8ngV8dPodzn89XrmvqAj-450">
          <mxGeometry width="50" height="50" relative="1" as="geometry">
            <mxPoint x="-831" y="622" as="sourcePoint" />
            <mxPoint x="-887.0616019030276" y="636.6419638093662" as="targetPoint" />
          </mxGeometry>
        </mxCell>
        <mxCell id="8ngV8dPodzn89XrmvqAj-459" value="" style="endArrow=classicThin;html=1;rounded=0;fillColor=#d5e8d4;strokeColor=#82b366;endFill=1;" edge="1" parent="1" source="8ngV8dPodzn89XrmvqAj-453" target="8ngV8dPodzn89XrmvqAj-431">
          <mxGeometry width="50" height="50" relative="1" as="geometry">
            <mxPoint x="-821" y="632" as="sourcePoint" />
            <mxPoint x="-696.7959088574821" y="587.4659848095803" as="targetPoint" />
          </mxGeometry>
        </mxCell>
        <mxCell id="8ngV8dPodzn89XrmvqAj-460" value="" style="endArrow=classicThin;html=1;rounded=0;fillColor=#d5e8d4;strokeColor=#82b366;endFill=1;" edge="1" parent="1" source="8ngV8dPodzn89XrmvqAj-455" target="8ngV8dPodzn89XrmvqAj-431">
          <mxGeometry width="50" height="50" relative="1" as="geometry">
            <mxPoint x="-811" y="642" as="sourcePoint" />
            <mxPoint x="-693.760687366926" y="594.3105441654834" as="targetPoint" />
          </mxGeometry>
        </mxCell>
        <mxCell id="8ngV8dPodzn89XrmvqAj-461" value="" style="endArrow=classicThin;html=1;rounded=0;fillColor=#d5e8d4;strokeColor=#82b366;endFill=1;" edge="1" parent="1" source="8ngV8dPodzn89XrmvqAj-453" target="8ngV8dPodzn89XrmvqAj-449">
          <mxGeometry width="50" height="50" relative="1" as="geometry">
            <mxPoint x="-801" y="652" as="sourcePoint" />
            <mxPoint x="-694.2403672165833" y="629.3297398882532" as="targetPoint" />
          </mxGeometry>
        </mxCell>
        <mxCell id="8ngV8dPodzn89XrmvqAj-462" value="" style="endArrow=classicThin;html=1;rounded=0;fillColor=#d5e8d4;strokeColor=#82b366;startArrow=none;startFill=0;endFill=1;" edge="1" parent="1" source="8ngV8dPodzn89XrmvqAj-455" target="8ngV8dPodzn89XrmvqAj-449">
          <mxGeometry width="50" height="50" relative="1" as="geometry">
            <mxPoint x="-791" y="662" as="sourcePoint" />
            <mxPoint x="-696.9481863736996" y="636.7543178021917" as="targetPoint" />
          </mxGeometry>
        </mxCell>
        <mxCell id="8ngV8dPodzn89XrmvqAj-463" value="" style="endArrow=none;html=1;rounded=0;fillColor=#d5e8d4;strokeColor=#82b366;" edge="1" parent="1" source="8ngV8dPodzn89XrmvqAj-453" target="8ngV8dPodzn89XrmvqAj-452">
          <mxGeometry width="50" height="50" relative="1" as="geometry">
            <mxPoint x="-781" y="672" as="sourcePoint" />
            <mxPoint x="-807" y="667" as="targetPoint" />
          </mxGeometry>
        </mxCell>
        <mxCell id="8ngV8dPodzn89XrmvqAj-464" value="" style="endArrow=none;html=1;rounded=0;fillColor=#d5e8d4;strokeColor=#82b366;" edge="1" parent="1" source="8ngV8dPodzn89XrmvqAj-455" target="8ngV8dPodzn89XrmvqAj-452">
          <mxGeometry width="50" height="50" relative="1" as="geometry">
            <mxPoint x="-771" y="682" as="sourcePoint" />
            <mxPoint x="-797" y="677" as="targetPoint" />
          </mxGeometry>
        </mxCell>
        <mxCell id="8ngV8dPodzn89XrmvqAj-465" value="" style="endArrow=none;html=1;rounded=0;fillColor=#d5e8d4;strokeColor=#82b366;" edge="1" parent="1" source="8ngV8dPodzn89XrmvqAj-453" target="8ngV8dPodzn89XrmvqAj-454">
          <mxGeometry width="50" height="50" relative="1" as="geometry">
            <mxPoint x="-761" y="692" as="sourcePoint" />
            <mxPoint x="-787" y="687" as="targetPoint" />
          </mxGeometry>
        </mxCell>
        <mxCell id="8ngV8dPodzn89XrmvqAj-466" value="" style="endArrow=none;html=1;rounded=0;fillColor=#d5e8d4;strokeColor=#82b366;" edge="1" parent="1" source="8ngV8dPodzn89XrmvqAj-455" target="8ngV8dPodzn89XrmvqAj-454">
          <mxGeometry width="50" height="50" relative="1" as="geometry">
            <mxPoint x="-751" y="702" as="sourcePoint" />
            <mxPoint x="-777" y="697" as="targetPoint" />
          </mxGeometry>
        </mxCell>
        <mxCell id="8ngV8dPodzn89XrmvqAj-468" value="" style="endArrow=none;dashed=1;html=1;rounded=0;" edge="1" parent="1" source="8ngV8dPodzn89XrmvqAj-400" target="8ngV8dPodzn89XrmvqAj-417">
          <mxGeometry width="50" height="50" relative="1" as="geometry">
            <mxPoint x="-785" y="355" as="sourcePoint" />
            <mxPoint x="-703" y="435" as="targetPoint" />
          </mxGeometry>
        </mxCell>
        <mxCell id="8ngV8dPodzn89XrmvqAj-469" value="" style="endArrow=none;dashed=1;html=1;rounded=0;" edge="1" parent="1" source="8ngV8dPodzn89XrmvqAj-400" target="8ngV8dPodzn89XrmvqAj-419">
          <mxGeometry width="50" height="50" relative="1" as="geometry">
            <mxPoint x="-775" y="365" as="sourcePoint" />
            <mxPoint x="-693" y="445" as="targetPoint" />
          </mxGeometry>
        </mxCell>
        <mxCell id="8ngV8dPodzn89XrmvqAj-470" value="" style="endArrow=none;dashed=1;html=1;rounded=0;" edge="1" parent="1" source="8ngV8dPodzn89XrmvqAj-400" target="8ngV8dPodzn89XrmvqAj-435">
          <mxGeometry width="50" height="50" relative="1" as="geometry">
            <mxPoint x="-765" y="375" as="sourcePoint" />
            <mxPoint x="-683" y="455" as="targetPoint" />
          </mxGeometry>
        </mxCell>
        <mxCell id="8ngV8dPodzn89XrmvqAj-471" value="" style="endArrow=none;dashed=1;html=1;rounded=0;" edge="1" parent="1" source="8ngV8dPodzn89XrmvqAj-400" target="8ngV8dPodzn89XrmvqAj-437">
          <mxGeometry width="50" height="50" relative="1" as="geometry">
            <mxPoint x="-755" y="385" as="sourcePoint" />
            <mxPoint x="-673" y="465" as="targetPoint" />
          </mxGeometry>
        </mxCell>
        <mxCell id="8ngV8dPodzn89XrmvqAj-472" value="" style="endArrow=none;dashed=1;html=1;rounded=0;" edge="1" parent="1" source="8ngV8dPodzn89XrmvqAj-400" target="8ngV8dPodzn89XrmvqAj-453">
          <mxGeometry width="50" height="50" relative="1" as="geometry">
            <mxPoint x="-745" y="395" as="sourcePoint" />
            <mxPoint x="-663" y="475" as="targetPoint" />
          </mxGeometry>
        </mxCell>
        <mxCell id="8ngV8dPodzn89XrmvqAj-473" value="" style="endArrow=none;dashed=1;html=1;rounded=0;" edge="1" parent="1" source="8ngV8dPodzn89XrmvqAj-400" target="8ngV8dPodzn89XrmvqAj-455">
          <mxGeometry width="50" height="50" relative="1" as="geometry">
            <mxPoint x="-735" y="405" as="sourcePoint" />
            <mxPoint x="-653" y="485" as="targetPoint" />
          </mxGeometry>
        </mxCell>
        <mxCell id="8ngV8dPodzn89XrmvqAj-474" value="" style="endArrow=none;dashed=1;html=1;rounded=0;" edge="1" parent="1" source="8ngV8dPodzn89XrmvqAj-401" target="8ngV8dPodzn89XrmvqAj-416">
          <mxGeometry width="50" height="50" relative="1" as="geometry">
            <mxPoint x="-725" y="415" as="sourcePoint" />
            <mxPoint x="-643" y="495" as="targetPoint" />
          </mxGeometry>
        </mxCell>
        <mxCell id="8ngV8dPodzn89XrmvqAj-475" value="" style="endArrow=none;dashed=1;html=1;rounded=0;" edge="1" parent="1" source="8ngV8dPodzn89XrmvqAj-401" target="8ngV8dPodzn89XrmvqAj-418">
          <mxGeometry width="50" height="50" relative="1" as="geometry">
            <mxPoint x="-705" y="435" as="sourcePoint" />
            <mxPoint x="-623" y="515" as="targetPoint" />
          </mxGeometry>
        </mxCell>
        <mxCell id="8ngV8dPodzn89XrmvqAj-476" value="" style="endArrow=none;dashed=1;html=1;rounded=0;" edge="1" parent="1" source="8ngV8dPodzn89XrmvqAj-401" target="8ngV8dPodzn89XrmvqAj-434">
          <mxGeometry width="50" height="50" relative="1" as="geometry">
            <mxPoint x="-695" y="445" as="sourcePoint" />
            <mxPoint x="-613" y="525" as="targetPoint" />
          </mxGeometry>
        </mxCell>
        <mxCell id="8ngV8dPodzn89XrmvqAj-477" value="" style="endArrow=none;dashed=1;html=1;rounded=0;" edge="1" parent="1" source="8ngV8dPodzn89XrmvqAj-401" target="8ngV8dPodzn89XrmvqAj-436">
          <mxGeometry width="50" height="50" relative="1" as="geometry">
            <mxPoint x="-685" y="455" as="sourcePoint" />
            <mxPoint x="-603" y="535" as="targetPoint" />
          </mxGeometry>
        </mxCell>
        <mxCell id="8ngV8dPodzn89XrmvqAj-478" value="" style="endArrow=none;dashed=1;html=1;rounded=0;" edge="1" parent="1" source="8ngV8dPodzn89XrmvqAj-401" target="8ngV8dPodzn89XrmvqAj-452">
          <mxGeometry width="50" height="50" relative="1" as="geometry">
            <mxPoint x="-675" y="465" as="sourcePoint" />
            <mxPoint x="-593" y="545" as="targetPoint" />
          </mxGeometry>
        </mxCell>
        <mxCell id="8ngV8dPodzn89XrmvqAj-479" value="" style="endArrow=none;dashed=1;html=1;rounded=0;" edge="1" parent="1" source="8ngV8dPodzn89XrmvqAj-401" target="8ngV8dPodzn89XrmvqAj-454">
          <mxGeometry width="50" height="50" relative="1" as="geometry">
            <mxPoint x="-665" y="475" as="sourcePoint" />
            <mxPoint x="-583" y="555" as="targetPoint" />
          </mxGeometry>
        </mxCell>
        <mxCell id="8ngV8dPodzn89XrmvqAj-480" value="" style="endArrow=none;dashed=1;html=1;rounded=0;" edge="1" parent="1" source="8ngV8dPodzn89XrmvqAj-402" target="8ngV8dPodzn89XrmvqAj-417">
          <mxGeometry width="50" height="50" relative="1" as="geometry">
            <mxPoint x="-655" y="485" as="sourcePoint" />
            <mxPoint x="-573" y="565" as="targetPoint" />
          </mxGeometry>
        </mxCell>
        <mxCell id="8ngV8dPodzn89XrmvqAj-481" value="" style="endArrow=none;dashed=1;html=1;rounded=0;" edge="1" parent="1" source="8ngV8dPodzn89XrmvqAj-402" target="8ngV8dPodzn89XrmvqAj-419">
          <mxGeometry width="50" height="50" relative="1" as="geometry">
            <mxPoint x="-645" y="495" as="sourcePoint" />
            <mxPoint x="-563" y="575" as="targetPoint" />
          </mxGeometry>
        </mxCell>
        <mxCell id="8ngV8dPodzn89XrmvqAj-482" value="" style="endArrow=none;dashed=1;html=1;rounded=0;" edge="1" parent="1" source="8ngV8dPodzn89XrmvqAj-402" target="8ngV8dPodzn89XrmvqAj-435">
          <mxGeometry width="50" height="50" relative="1" as="geometry">
            <mxPoint x="-635" y="505" as="sourcePoint" />
            <mxPoint x="-553" y="585" as="targetPoint" />
          </mxGeometry>
        </mxCell>
        <mxCell id="8ngV8dPodzn89XrmvqAj-483" value="" style="endArrow=none;dashed=1;html=1;rounded=0;" edge="1" parent="1" source="8ngV8dPodzn89XrmvqAj-402" target="8ngV8dPodzn89XrmvqAj-437">
          <mxGeometry width="50" height="50" relative="1" as="geometry">
            <mxPoint x="-625" y="515" as="sourcePoint" />
            <mxPoint x="-543" y="595" as="targetPoint" />
          </mxGeometry>
        </mxCell>
        <mxCell id="8ngV8dPodzn89XrmvqAj-484" value="" style="endArrow=none;dashed=1;html=1;rounded=0;" edge="1" parent="1" source="8ngV8dPodzn89XrmvqAj-402" target="8ngV8dPodzn89XrmvqAj-453">
          <mxGeometry width="50" height="50" relative="1" as="geometry">
            <mxPoint x="-615" y="525" as="sourcePoint" />
            <mxPoint x="-533" y="605" as="targetPoint" />
          </mxGeometry>
        </mxCell>
        <mxCell id="8ngV8dPodzn89XrmvqAj-485" value="" style="endArrow=none;dashed=1;html=1;rounded=0;" edge="1" parent="1" source="8ngV8dPodzn89XrmvqAj-402" target="8ngV8dPodzn89XrmvqAj-455">
          <mxGeometry width="50" height="50" relative="1" as="geometry">
            <mxPoint x="-605" y="535" as="sourcePoint" />
            <mxPoint x="-523" y="615" as="targetPoint" />
          </mxGeometry>
        </mxCell>
        <mxCell id="8ngV8dPodzn89XrmvqAj-486" value="" style="endArrow=none;dashed=1;html=1;rounded=0;" edge="1" parent="1" source="8ngV8dPodzn89XrmvqAj-403" target="8ngV8dPodzn89XrmvqAj-416">
          <mxGeometry width="50" height="50" relative="1" as="geometry">
            <mxPoint x="-585" y="555" as="sourcePoint" />
            <mxPoint x="-503" y="635" as="targetPoint" />
          </mxGeometry>
        </mxCell>
        <mxCell id="8ngV8dPodzn89XrmvqAj-487" value="" style="endArrow=none;dashed=1;html=1;rounded=0;" edge="1" parent="1" source="8ngV8dPodzn89XrmvqAj-403" target="8ngV8dPodzn89XrmvqAj-418">
          <mxGeometry width="50" height="50" relative="1" as="geometry">
            <mxPoint x="-575" y="565" as="sourcePoint" />
            <mxPoint x="-493" y="645" as="targetPoint" />
          </mxGeometry>
        </mxCell>
        <mxCell id="8ngV8dPodzn89XrmvqAj-488" value="" style="endArrow=none;dashed=1;html=1;rounded=0;" edge="1" parent="1" source="8ngV8dPodzn89XrmvqAj-403" target="8ngV8dPodzn89XrmvqAj-434">
          <mxGeometry width="50" height="50" relative="1" as="geometry">
            <mxPoint x="-565" y="575" as="sourcePoint" />
            <mxPoint x="-483" y="655" as="targetPoint" />
          </mxGeometry>
        </mxCell>
        <mxCell id="8ngV8dPodzn89XrmvqAj-489" value="" style="endArrow=none;dashed=1;html=1;rounded=0;" edge="1" parent="1" source="8ngV8dPodzn89XrmvqAj-403" target="8ngV8dPodzn89XrmvqAj-436">
          <mxGeometry width="50" height="50" relative="1" as="geometry">
            <mxPoint x="-825" y="315" as="sourcePoint" />
            <mxPoint x="-743" y="395" as="targetPoint" />
          </mxGeometry>
        </mxCell>
        <mxCell id="8ngV8dPodzn89XrmvqAj-490" value="" style="endArrow=none;dashed=1;html=1;rounded=0;" edge="1" parent="1" source="8ngV8dPodzn89XrmvqAj-403" target="8ngV8dPodzn89XrmvqAj-452">
          <mxGeometry width="50" height="50" relative="1" as="geometry">
            <mxPoint x="-815" y="325" as="sourcePoint" />
            <mxPoint x="-733" y="405" as="targetPoint" />
          </mxGeometry>
        </mxCell>
        <mxCell id="8ngV8dPodzn89XrmvqAj-491" value="" style="endArrow=none;dashed=1;html=1;rounded=0;" edge="1" parent="1" source="8ngV8dPodzn89XrmvqAj-403" target="8ngV8dPodzn89XrmvqAj-454">
          <mxGeometry width="50" height="50" relative="1" as="geometry">
            <mxPoint x="-805" y="335" as="sourcePoint" />
            <mxPoint x="-723" y="415" as="targetPoint" />
          </mxGeometry>
        </mxCell>
        <mxCell id="8ngV8dPodzn89XrmvqAj-493" value="" style="shape=mxgraph.mockup.markup.redX;fillColor=#000000;html=1;shadow=0;whiteSpace=wrap;strokeColor=none;" vertex="1" parent="1">
          <mxGeometry x="-858" y="283.5" width="24" height="21" as="geometry" />
        </mxCell>
        <mxCell id="8ngV8dPodzn89XrmvqAj-496" value="" style="shape=mxgraph.mockup.markup.redX;fillColor=#000000;html=1;shadow=0;whiteSpace=wrap;strokeColor=none;" vertex="1" parent="1">
          <mxGeometry x="-858" y="322.5" width="24" height="21" as="geometry" />
        </mxCell>
        <mxCell id="8ngV8dPodzn89XrmvqAj-497" value="" style="shape=mxgraph.mockup.markup.redX;fillColor=#000000;html=1;shadow=0;whiteSpace=wrap;strokeColor=none;" vertex="1" parent="1">
          <mxGeometry x="-858" y="423" width="24" height="21" as="geometry" />
        </mxCell>
        <mxCell id="8ngV8dPodzn89XrmvqAj-498" value="" style="shape=mxgraph.mockup.markup.redX;fillColor=#000000;html=1;shadow=0;whiteSpace=wrap;strokeColor=none;" vertex="1" parent="1">
          <mxGeometry x="-858" y="483.5" width="24" height="21" as="geometry" />
        </mxCell>
        <mxCell id="8ngV8dPodzn89XrmvqAj-499" value="" style="shape=mxgraph.mockup.markup.redX;fillColor=#000000;html=1;shadow=0;whiteSpace=wrap;strokeColor=none;" vertex="1" parent="1">
          <mxGeometry x="-858" y="583.5" width="24" height="21" as="geometry" />
        </mxCell>
        <mxCell id="8ngV8dPodzn89XrmvqAj-500" value="" style="shape=mxgraph.mockup.markup.redX;fillColor=#000000;html=1;shadow=0;whiteSpace=wrap;strokeColor=none;" vertex="1" parent="1">
          <mxGeometry x="-858" y="622.5" width="24" height="21" as="geometry" />
        </mxCell>
        <mxCell id="8ngV8dPodzn89XrmvqAj-501" value="" style="shape=mxgraph.mockup.markup.redX;fillColor=#000000;html=1;shadow=0;whiteSpace=wrap;strokeColor=none;" vertex="1" parent="1">
          <mxGeometry x="-754" y="283.5" width="24" height="21" as="geometry" />
        </mxCell>
        <mxCell id="8ngV8dPodzn89XrmvqAj-502" value="" style="shape=mxgraph.mockup.markup.redX;fillColor=#000000;html=1;shadow=0;whiteSpace=wrap;strokeColor=none;" vertex="1" parent="1">
          <mxGeometry x="-754" y="383.5" width="24" height="21" as="geometry" />
        </mxCell>
        <mxCell id="8ngV8dPodzn89XrmvqAj-504" value="" style="shape=mxgraph.mockup.markup.redX;fillColor=#000000;html=1;shadow=0;whiteSpace=wrap;strokeColor=none;" vertex="1" parent="1">
          <mxGeometry x="-754" y="422.5" width="24" height="21" as="geometry" />
        </mxCell>
        <mxCell id="8ngV8dPodzn89XrmvqAj-508" value="" style="shape=mxgraph.mockup.markup.redX;fillColor=#000000;html=1;shadow=0;whiteSpace=wrap;strokeColor=none;" vertex="1" parent="1">
          <mxGeometry x="-754" y="522.5" width="24" height="21" as="geometry" />
        </mxCell>
        <mxCell id="8ngV8dPodzn89XrmvqAj-510" value="" style="shape=mxgraph.mockup.markup.redX;fillColor=#000000;html=1;shadow=0;whiteSpace=wrap;strokeColor=none;" vertex="1" parent="1">
          <mxGeometry x="-754" y="623" width="24" height="21" as="geometry" />
        </mxCell>
        <mxCell id="8ngV8dPodzn89XrmvqAj-511" value="" style="rounded=0;whiteSpace=wrap;html=1;fillColor=#f8cecc;strokeColor=#b85450;" vertex="1" parent="1">
          <mxGeometry x="-539" y="421" width="150" height="84" as="geometry" />
        </mxCell>
        <mxCell id="8ngV8dPodzn89XrmvqAj-512" value="" style="endArrow=none;html=1;rounded=0;fillColor=#dae8fc;strokeColor=#6c8ebf;" edge="1" parent="1" source="8ngV8dPodzn89XrmvqAj-513" target="8ngV8dPodzn89XrmvqAj-530">
          <mxGeometry width="50" height="50" relative="1" as="geometry">
            <mxPoint x="-465" y="391" as="sourcePoint" />
            <mxPoint x="-559.37851943447" y="437.87266063793356" as="targetPoint" />
          </mxGeometry>
        </mxCell>
        <mxCell id="8ngV8dPodzn89XrmvqAj-513" value="" style="ellipse;whiteSpace=wrap;html=1;aspect=fixed;strokeColor=#6c8ebf;fillColor=#dae8fc;" vertex="1" parent="1">
          <mxGeometry x="-533" y="430" width="30" height="30" as="geometry" />
        </mxCell>
        <mxCell id="8ngV8dPodzn89XrmvqAj-514" value="" style="ellipse;whiteSpace=wrap;html=1;aspect=fixed;strokeColor=#b85450;fillColor=#f8cecc;" vertex="1" parent="1">
          <mxGeometry x="-429" y="430" width="30" height="30" as="geometry" />
        </mxCell>
        <mxCell id="8ngV8dPodzn89XrmvqAj-515" value="" style="ellipse;whiteSpace=wrap;html=1;aspect=fixed;strokeColor=#d79b00;fillColor=#ffe6cc;" vertex="1" parent="1">
          <mxGeometry x="-533" y="469" width="30" height="30" as="geometry" />
        </mxCell>
        <mxCell id="8ngV8dPodzn89XrmvqAj-516" value="" style="ellipse;whiteSpace=wrap;html=1;aspect=fixed;strokeColor=#d79b00;fillColor=#ffe6cc;" vertex="1" parent="1">
          <mxGeometry x="-429" y="469" width="30" height="30" as="geometry" />
        </mxCell>
        <mxCell id="8ngV8dPodzn89XrmvqAj-517" value="" style="endArrow=none;html=1;rounded=0;fillColor=#ffe6cc;strokeColor=#d79b00;" edge="1" parent="1" source="8ngV8dPodzn89XrmvqAj-515" target="8ngV8dPodzn89XrmvqAj-530">
          <mxGeometry width="50" height="50" relative="1" as="geometry">
            <mxPoint x="-523" y="453" as="sourcePoint" />
            <mxPoint x="-563.6355744080452" y="446.8036879932955" as="targetPoint" />
          </mxGeometry>
        </mxCell>
        <mxCell id="8ngV8dPodzn89XrmvqAj-518" value="" style="endArrow=none;html=1;rounded=0;fillColor=#dae8fc;strokeColor=#6c8ebf;" edge="1" parent="1" source="8ngV8dPodzn89XrmvqAj-513" target="8ngV8dPodzn89XrmvqAj-531">
          <mxGeometry width="50" height="50" relative="1" as="geometry">
            <mxPoint x="-513" y="463" as="sourcePoint" />
            <mxPoint x="-563.0505077524799" y="479.9329499443104" as="targetPoint" />
          </mxGeometry>
        </mxCell>
        <mxCell id="8ngV8dPodzn89XrmvqAj-519" value="" style="endArrow=none;html=1;rounded=0;fillColor=#ffe6cc;strokeColor=#d79b00;" edge="1" parent="1" source="8ngV8dPodzn89XrmvqAj-515" target="8ngV8dPodzn89XrmvqAj-531">
          <mxGeometry width="50" height="50" relative="1" as="geometry">
            <mxPoint x="-503" y="473" as="sourcePoint" />
            <mxPoint x="-559.175441986345" y="489.3567255981793" as="targetPoint" />
          </mxGeometry>
        </mxCell>
        <mxCell id="8ngV8dPodzn89XrmvqAj-520" value="" style="endArrow=none;html=1;rounded=0;fillColor=#f8cecc;strokeColor=#b85450;startArrow=classicThin;startFill=1;" edge="1" parent="1" source="8ngV8dPodzn89XrmvqAj-528" target="8ngV8dPodzn89XrmvqAj-514">
          <mxGeometry width="50" height="50" relative="1" as="geometry">
            <mxPoint x="-300" y="380" as="sourcePoint" />
            <mxPoint x="-368.6656400997076" y="437.64178520364953" as="targetPoint" />
          </mxGeometry>
        </mxCell>
        <mxCell id="8ngV8dPodzn89XrmvqAj-524" value="" style="endArrow=none;html=1;rounded=0;fillColor=#f8cecc;strokeColor=#000000;dashed=1;" edge="1" parent="1" source="8ngV8dPodzn89XrmvqAj-514" target="8ngV8dPodzn89XrmvqAj-513">
          <mxGeometry width="50" height="50" relative="1" as="geometry">
            <mxPoint x="-453" y="523" as="sourcePoint" />
            <mxPoint x="-479" y="518" as="targetPoint" />
          </mxGeometry>
        </mxCell>
        <mxCell id="8ngV8dPodzn89XrmvqAj-525" value="" style="endArrow=none;html=1;rounded=0;fillColor=#f8cecc;strokeColor=#000000;dashed=1;" edge="1" parent="1" source="8ngV8dPodzn89XrmvqAj-516" target="8ngV8dPodzn89XrmvqAj-513">
          <mxGeometry width="50" height="50" relative="1" as="geometry">
            <mxPoint x="-443" y="533" as="sourcePoint" />
            <mxPoint x="-469" y="528" as="targetPoint" />
          </mxGeometry>
        </mxCell>
        <mxCell id="8ngV8dPodzn89XrmvqAj-526" value="" style="endArrow=none;html=1;rounded=0;fillColor=#f8cecc;strokeColor=#000000;dashed=1;" edge="1" parent="1" source="8ngV8dPodzn89XrmvqAj-514" target="8ngV8dPodzn89XrmvqAj-515">
          <mxGeometry width="50" height="50" relative="1" as="geometry">
            <mxPoint x="-433" y="543" as="sourcePoint" />
            <mxPoint x="-459" y="538" as="targetPoint" />
          </mxGeometry>
        </mxCell>
        <mxCell id="8ngV8dPodzn89XrmvqAj-527" value="" style="endArrow=none;html=1;rounded=0;fillColor=#fff2cc;strokeColor=#d6b656;" edge="1" parent="1" source="8ngV8dPodzn89XrmvqAj-516" target="8ngV8dPodzn89XrmvqAj-515">
          <mxGeometry width="50" height="50" relative="1" as="geometry">
            <mxPoint x="-423" y="553" as="sourcePoint" />
            <mxPoint x="-449" y="548" as="targetPoint" />
          </mxGeometry>
        </mxCell>
        <mxCell id="8ngV8dPodzn89XrmvqAj-528" value="" style="ellipse;whiteSpace=wrap;html=1;aspect=fixed;" vertex="1" parent="1">
          <mxGeometry x="-365" y="430" width="30" height="30" as="geometry" />
        </mxCell>
        <mxCell id="8ngV8dPodzn89XrmvqAj-529" value="" style="ellipse;whiteSpace=wrap;html=1;aspect=fixed;" vertex="1" parent="1">
          <mxGeometry x="-365" y="469" width="30" height="30" as="geometry" />
        </mxCell>
        <mxCell id="8ngV8dPodzn89XrmvqAj-530" value="" style="ellipse;whiteSpace=wrap;html=1;aspect=fixed;" vertex="1" parent="1">
          <mxGeometry x="-593" y="430" width="30" height="30" as="geometry" />
        </mxCell>
        <mxCell id="8ngV8dPodzn89XrmvqAj-531" value="" style="ellipse;whiteSpace=wrap;html=1;aspect=fixed;" vertex="1" parent="1">
          <mxGeometry x="-593" y="469" width="30" height="30" as="geometry" />
        </mxCell>
        <mxCell id="8ngV8dPodzn89XrmvqAj-534" value="" style="shape=mxgraph.mockup.markup.redX;fillColor=#000000;html=1;shadow=0;whiteSpace=wrap;strokeColor=none;" vertex="1" parent="1">
          <mxGeometry x="-754" y="583.5" width="24" height="21" as="geometry" />
        </mxCell>
        <mxCell id="8ngV8dPodzn89XrmvqAj-537" value="" style="endArrow=none;html=1;rounded=0;fillColor=#f8cecc;strokeColor=#b85450;startArrow=classicThin;startFill=1;" edge="1" parent="1" source="8ngV8dPodzn89XrmvqAj-529" target="8ngV8dPodzn89XrmvqAj-514">
          <mxGeometry width="50" height="50" relative="1" as="geometry">
            <mxPoint x="-355" y="448" as="sourcePoint" />
            <mxPoint x="-389" y="454" as="targetPoint" />
          </mxGeometry>
        </mxCell>
        <mxCell id="8ngV8dPodzn89XrmvqAj-538" value="" style="endArrow=none;html=1;rounded=0;fillColor=#ffe6cc;strokeColor=#d79b00;startArrow=classicThin;startFill=1;" edge="1" parent="1" source="8ngV8dPodzn89XrmvqAj-528" target="8ngV8dPodzn89XrmvqAj-516">
          <mxGeometry width="50" height="50" relative="1" as="geometry">
            <mxPoint x="-352" y="491" as="sourcePoint" />
            <mxPoint x="-392" y="464" as="targetPoint" />
          </mxGeometry>
        </mxCell>
        <mxCell id="8ngV8dPodzn89XrmvqAj-539" value="" style="endArrow=none;html=1;rounded=0;fillColor=#ffe6cc;strokeColor=#d79b00;startArrow=classicThin;startFill=1;" edge="1" parent="1" source="8ngV8dPodzn89XrmvqAj-529" target="8ngV8dPodzn89XrmvqAj-516">
          <mxGeometry width="50" height="50" relative="1" as="geometry">
            <mxPoint x="-342" y="501" as="sourcePoint" />
            <mxPoint x="-382" y="474" as="targetPoint" />
          </mxGeometry>
        </mxCell>
        <mxCell id="8ngV8dPodzn89XrmvqAj-563" value="" style="rounded=0;whiteSpace=wrap;html=1;fillColor=#f8cecc;strokeColor=#b85450;" vertex="1" parent="1">
          <mxGeometry x="-242" y="421" width="150" height="84" as="geometry" />
        </mxCell>
        <mxCell id="8ngV8dPodzn89XrmvqAj-564" value="" style="endArrow=none;html=1;rounded=0;fillColor=#f8cecc;strokeColor=#b85450;" edge="1" parent="1" source="8ngV8dPodzn89XrmvqAj-565" target="8ngV8dPodzn89XrmvqAj-579">
          <mxGeometry width="50" height="50" relative="1" as="geometry">
            <mxPoint x="-168" y="391" as="sourcePoint" />
            <mxPoint x="-262.37851943447004" y="437.87266063793356" as="targetPoint" />
          </mxGeometry>
        </mxCell>
        <mxCell id="8ngV8dPodzn89XrmvqAj-565" value="" style="ellipse;whiteSpace=wrap;html=1;aspect=fixed;strokeColor=#b85450;fillColor=#f8cecc;" vertex="1" parent="1">
          <mxGeometry x="-236" y="430" width="30" height="30" as="geometry" />
        </mxCell>
        <mxCell id="8ngV8dPodzn89XrmvqAj-566" value="" style="ellipse;whiteSpace=wrap;html=1;aspect=fixed;strokeColor=#b85450;fillColor=#f8cecc;" vertex="1" parent="1">
          <mxGeometry x="-132" y="430" width="30" height="30" as="geometry" />
        </mxCell>
        <mxCell id="8ngV8dPodzn89XrmvqAj-567" value="" style="ellipse;whiteSpace=wrap;html=1;aspect=fixed;strokeColor=#b85450;fillColor=#f8cecc;" vertex="1" parent="1">
          <mxGeometry x="-236" y="469" width="30" height="30" as="geometry" />
        </mxCell>
        <mxCell id="8ngV8dPodzn89XrmvqAj-568" value="" style="ellipse;whiteSpace=wrap;html=1;aspect=fixed;strokeColor=#b85450;fillColor=#f8cecc;" vertex="1" parent="1">
          <mxGeometry x="-132" y="469" width="30" height="30" as="geometry" />
        </mxCell>
        <mxCell id="8ngV8dPodzn89XrmvqAj-569" value="" style="endArrow=none;html=1;rounded=0;fillColor=#f8cecc;strokeColor=#b85450;" edge="1" parent="1" source="8ngV8dPodzn89XrmvqAj-567" target="8ngV8dPodzn89XrmvqAj-579">
          <mxGeometry width="50" height="50" relative="1" as="geometry">
            <mxPoint x="-226" y="453" as="sourcePoint" />
            <mxPoint x="-266.63557440804516" y="446.8036879932955" as="targetPoint" />
          </mxGeometry>
        </mxCell>
        <mxCell id="8ngV8dPodzn89XrmvqAj-570" value="" style="endArrow=none;html=1;rounded=0;fillColor=#f8cecc;strokeColor=#b85450;" edge="1" parent="1" source="8ngV8dPodzn89XrmvqAj-565" target="8ngV8dPodzn89XrmvqAj-580">
          <mxGeometry width="50" height="50" relative="1" as="geometry">
            <mxPoint x="-216" y="463" as="sourcePoint" />
            <mxPoint x="-266.0505077524799" y="479.9329499443104" as="targetPoint" />
          </mxGeometry>
        </mxCell>
        <mxCell id="8ngV8dPodzn89XrmvqAj-571" value="" style="endArrow=none;html=1;rounded=0;fillColor=#f8cecc;strokeColor=#b85450;" edge="1" parent="1" source="8ngV8dPodzn89XrmvqAj-567" target="8ngV8dPodzn89XrmvqAj-580">
          <mxGeometry width="50" height="50" relative="1" as="geometry">
            <mxPoint x="-206" y="473" as="sourcePoint" />
            <mxPoint x="-262.17544198634505" y="489.3567255981793" as="targetPoint" />
          </mxGeometry>
        </mxCell>
        <mxCell id="8ngV8dPodzn89XrmvqAj-572" value="" style="endArrow=none;html=1;rounded=0;fillColor=#f8cecc;strokeColor=#b85450;startArrow=none;startFill=0;endFill=0;" edge="1" parent="1" source="8ngV8dPodzn89XrmvqAj-577" target="8ngV8dPodzn89XrmvqAj-566">
          <mxGeometry width="50" height="50" relative="1" as="geometry">
            <mxPoint x="-3" y="380" as="sourcePoint" />
            <mxPoint x="-71.66564009970762" y="437.64178520364953" as="targetPoint" />
          </mxGeometry>
        </mxCell>
        <mxCell id="8ngV8dPodzn89XrmvqAj-573" value="" style="endArrow=none;html=1;rounded=0;fillColor=#f8cecc;strokeColor=#b85450;" edge="1" parent="1" source="8ngV8dPodzn89XrmvqAj-566" target="8ngV8dPodzn89XrmvqAj-565">
          <mxGeometry width="50" height="50" relative="1" as="geometry">
            <mxPoint x="-156" y="523" as="sourcePoint" />
            <mxPoint x="-182" y="518" as="targetPoint" />
          </mxGeometry>
        </mxCell>
        <mxCell id="8ngV8dPodzn89XrmvqAj-574" value="" style="endArrow=none;html=1;rounded=0;fillColor=#f8cecc;strokeColor=#b85450;" edge="1" parent="1" source="8ngV8dPodzn89XrmvqAj-568" target="8ngV8dPodzn89XrmvqAj-565">
          <mxGeometry width="50" height="50" relative="1" as="geometry">
            <mxPoint x="-146" y="533" as="sourcePoint" />
            <mxPoint x="-172" y="528" as="targetPoint" />
          </mxGeometry>
        </mxCell>
        <mxCell id="8ngV8dPodzn89XrmvqAj-575" value="" style="endArrow=none;html=1;rounded=0;fillColor=#f8cecc;strokeColor=#b85450;" edge="1" parent="1" source="8ngV8dPodzn89XrmvqAj-566" target="8ngV8dPodzn89XrmvqAj-567">
          <mxGeometry width="50" height="50" relative="1" as="geometry">
            <mxPoint x="-136" y="543" as="sourcePoint" />
            <mxPoint x="-162" y="538" as="targetPoint" />
          </mxGeometry>
        </mxCell>
        <mxCell id="8ngV8dPodzn89XrmvqAj-576" value="" style="endArrow=none;html=1;rounded=0;fillColor=#f8cecc;strokeColor=#b85450;" edge="1" parent="1" source="8ngV8dPodzn89XrmvqAj-568" target="8ngV8dPodzn89XrmvqAj-567">
          <mxGeometry width="50" height="50" relative="1" as="geometry">
            <mxPoint x="-126" y="553" as="sourcePoint" />
            <mxPoint x="-152" y="548" as="targetPoint" />
          </mxGeometry>
        </mxCell>
        <mxCell id="8ngV8dPodzn89XrmvqAj-577" value="" style="ellipse;whiteSpace=wrap;html=1;aspect=fixed;" vertex="1" parent="1">
          <mxGeometry x="-68" y="430" width="30" height="30" as="geometry" />
        </mxCell>
        <mxCell id="8ngV8dPodzn89XrmvqAj-578" value="" style="ellipse;whiteSpace=wrap;html=1;aspect=fixed;" vertex="1" parent="1">
          <mxGeometry x="-68" y="469" width="30" height="30" as="geometry" />
        </mxCell>
        <mxCell id="8ngV8dPodzn89XrmvqAj-579" value="" style="ellipse;whiteSpace=wrap;html=1;aspect=fixed;" vertex="1" parent="1">
          <mxGeometry x="-296" y="430" width="30" height="30" as="geometry" />
        </mxCell>
        <mxCell id="8ngV8dPodzn89XrmvqAj-580" value="" style="ellipse;whiteSpace=wrap;html=1;aspect=fixed;" vertex="1" parent="1">
          <mxGeometry x="-296" y="469" width="30" height="30" as="geometry" />
        </mxCell>
        <mxCell id="8ngV8dPodzn89XrmvqAj-581" value="" style="endArrow=none;html=1;rounded=0;fillColor=#f8cecc;strokeColor=#b85450;startArrow=none;startFill=0;" edge="1" parent="1" source="8ngV8dPodzn89XrmvqAj-578" target="8ngV8dPodzn89XrmvqAj-566">
          <mxGeometry width="50" height="50" relative="1" as="geometry">
            <mxPoint x="-58" y="448" as="sourcePoint" />
            <mxPoint x="-92" y="454" as="targetPoint" />
          </mxGeometry>
        </mxCell>
        <mxCell id="8ngV8dPodzn89XrmvqAj-582" value="" style="endArrow=none;html=1;rounded=0;fillColor=#f8cecc;strokeColor=#b85450;startArrow=none;startFill=0;" edge="1" parent="1" source="8ngV8dPodzn89XrmvqAj-577" target="8ngV8dPodzn89XrmvqAj-568">
          <mxGeometry width="50" height="50" relative="1" as="geometry">
            <mxPoint x="-55" y="491" as="sourcePoint" />
            <mxPoint x="-95" y="464" as="targetPoint" />
          </mxGeometry>
        </mxCell>
        <mxCell id="8ngV8dPodzn89XrmvqAj-583" value="" style="endArrow=none;html=1;rounded=0;fillColor=#f8cecc;strokeColor=#b85450;startArrow=none;startFill=0;" edge="1" parent="1" source="8ngV8dPodzn89XrmvqAj-578" target="8ngV8dPodzn89XrmvqAj-568">
          <mxGeometry width="50" height="50" relative="1" as="geometry">
            <mxPoint x="-45" y="501" as="sourcePoint" />
            <mxPoint x="-85" y="474" as="targetPoint" />
          </mxGeometry>
        </mxCell>
        <mxCell id="8ngV8dPodzn89XrmvqAj-584" value="" style="swimlane;startSize=0;dashed=1;" vertex="1" parent="1">
          <mxGeometry x="-1609" y="120" width="319" height="580" as="geometry" />
        </mxCell>
        <mxCell id="8ngV8dPodzn89XrmvqAj-586" value="&lt;font style=&quot;font-size: 14px;&quot;&gt;Independent Training&lt;/font&gt;" style="text;html=1;strokeColor=none;fillColor=none;align=left;verticalAlign=middle;whiteSpace=wrap;rounded=0;fontStyle=1" vertex="1" parent="8ngV8dPodzn89XrmvqAj-584">
          <mxGeometry x="90" y="20" width="180" height="23.88" as="geometry" />
        </mxCell>
        <mxCell id="emHtwyXRfmXsgW-whAjd-1" value="rank 0" style="text;html=1;strokeColor=none;fillColor=none;align=left;verticalAlign=middle;whiteSpace=wrap;rounded=0;fontStyle=1" parent="8ngV8dPodzn89XrmvqAj-584" vertex="1">
          <mxGeometry x="115" y="60" width="56" height="23.88" as="geometry" />
        </mxCell>
        <mxCell id="emHtwyXRfmXsgW-whAjd-2" value="rank 1&amp;nbsp;" style="text;html=1;strokeColor=none;fillColor=none;align=left;verticalAlign=middle;whiteSpace=wrap;rounded=0;fontStyle=1" parent="8ngV8dPodzn89XrmvqAj-584" vertex="1">
          <mxGeometry x="115" y="90" width="56" height="23.88" as="geometry" />
        </mxCell>
        <mxCell id="emHtwyXRfmXsgW-whAjd-5" value="" style="rounded=0;whiteSpace=wrap;html=1;fillColor=#f8cecc;strokeColor=#b85450;" parent="8ngV8dPodzn89XrmvqAj-584" vertex="1">
          <mxGeometry x="75" y="62" width="30" height="20" as="geometry" />
        </mxCell>
        <mxCell id="emHtwyXRfmXsgW-whAjd-6" value="" style="rounded=0;whiteSpace=wrap;html=1;fillColor=#dae8fc;strokeColor=#6c8ebf;" parent="8ngV8dPodzn89XrmvqAj-584" vertex="1">
          <mxGeometry x="75" y="92" width="30" height="20" as="geometry" />
        </mxCell>
        <mxCell id="emHtwyXRfmXsgW-whAjd-3" value="rank 2" style="text;html=1;strokeColor=none;fillColor=none;align=left;verticalAlign=middle;whiteSpace=wrap;rounded=0;fontStyle=1" parent="8ngV8dPodzn89XrmvqAj-584" vertex="1">
          <mxGeometry x="224" y="60" width="56" height="23.88" as="geometry" />
        </mxCell>
        <mxCell id="emHtwyXRfmXsgW-whAjd-4" value="rank 3" style="text;html=1;strokeColor=none;fillColor=none;align=left;verticalAlign=middle;whiteSpace=wrap;rounded=0;fontStyle=1" parent="8ngV8dPodzn89XrmvqAj-584" vertex="1">
          <mxGeometry x="224" y="90" width="57" height="23.88" as="geometry" />
        </mxCell>
        <mxCell id="emHtwyXRfmXsgW-whAjd-7" value="" style="rounded=0;whiteSpace=wrap;html=1;fillColor=#ffe6cc;strokeColor=#d79b00;" parent="8ngV8dPodzn89XrmvqAj-584" vertex="1">
          <mxGeometry x="185" y="62" width="30" height="20" as="geometry" />
        </mxCell>
        <mxCell id="emHtwyXRfmXsgW-whAjd-8" value="" style="rounded=0;whiteSpace=wrap;html=1;fillColor=#d5e8d4;strokeColor=#82b366;" parent="8ngV8dPodzn89XrmvqAj-584" vertex="1">
          <mxGeometry x="185" y="92" width="30" height="20" as="geometry" />
        </mxCell>
        <mxCell id="8ngV8dPodzn89XrmvqAj-587" value="" style="swimlane;startSize=0;dashed=1;" vertex="1" parent="1">
          <mxGeometry x="-1281.5" y="120" width="319" height="580" as="geometry" />
        </mxCell>
        <mxCell id="8ngV8dPodzn89XrmvqAj-588" value="&lt;font style=&quot;font-size: 14px;&quot;&gt;Layer Concatenation&lt;br&gt;with zero cross weights&lt;/font&gt;" style="text;html=1;strokeColor=none;fillColor=none;align=left;verticalAlign=middle;whiteSpace=wrap;rounded=0;fontStyle=1" vertex="1" parent="8ngV8dPodzn89XrmvqAj-587">
          <mxGeometry x="90" y="20" width="180" height="23.88" as="geometry" />
        </mxCell>
        <mxCell id="bQ-h9A7zp6dqB7Uuxyai-137" value="weight 0 (for cross connections)" style="text;html=1;strokeColor=none;fillColor=none;align=center;verticalAlign=middle;whiteSpace=wrap;rounded=0;shadow=1;strokeWidth=1.5;" parent="8ngV8dPodzn89XrmvqAj-587" vertex="1">
          <mxGeometry x="121.5" y="71" width="178.5" height="20" as="geometry" />
        </mxCell>
        <mxCell id="fVWs-iEzJgbNQNDK8qAs-48" value="" style="endArrow=none;dashed=1;html=1;rounded=0;" parent="8ngV8dPodzn89XrmvqAj-587" edge="1">
          <mxGeometry width="50" height="50" relative="1" as="geometry">
            <mxPoint x="61.5" y="80.75" as="sourcePoint" />
            <mxPoint x="115.5" y="80.75" as="targetPoint" />
          </mxGeometry>
        </mxCell>
        <mxCell id="emHtwyXRfmXsgW-whAjd-43" value="" style="endArrow=classic;html=1;rounded=0;" parent="8ngV8dPodzn89XrmvqAj-587" edge="1">
          <mxGeometry width="50" height="50" relative="1" as="geometry">
            <mxPoint x="61.5" y="111.75" as="sourcePoint" />
            <mxPoint x="118.5" y="111.75" as="targetPoint" />
          </mxGeometry>
        </mxCell>
        <mxCell id="emHtwyXRfmXsgW-whAjd-44" value="weight * 1/4 (for last layer)" style="text;html=1;strokeColor=none;fillColor=none;align=center;verticalAlign=middle;whiteSpace=wrap;rounded=0;shadow=1;strokeWidth=1.5;" parent="8ngV8dPodzn89XrmvqAj-587" vertex="1">
          <mxGeometry x="141.5" y="102" width="148.5" height="20" as="geometry" />
        </mxCell>
        <mxCell id="8ngV8dPodzn89XrmvqAj-589" value="" style="swimlane;startSize=0;dashed=1;" vertex="1" parent="1">
          <mxGeometry x="-950" y="120" width="630" height="580" as="geometry" />
        </mxCell>
        <mxCell id="8ngV8dPodzn89XrmvqAj-590" value="&lt;font style=&quot;font-size: 14px;&quot;&gt;Structured L2-Pruning&lt;/font&gt;" style="text;html=1;strokeColor=none;fillColor=none;align=left;verticalAlign=middle;whiteSpace=wrap;rounded=0;fontStyle=1" vertex="1" parent="8ngV8dPodzn89XrmvqAj-589">
          <mxGeometry x="256.5" y="20" width="180" height="23.88" as="geometry" />
        </mxCell>
        <mxCell id="8ngV8dPodzn89XrmvqAj-596" value="&lt;font style=&quot;font-size: 14px;&quot;&gt;Pruning&lt;/font&gt;" style="text;html=1;strokeColor=none;fillColor=none;align=left;verticalAlign=middle;whiteSpace=wrap;rounded=0;fontStyle=1" vertex="1" parent="8ngV8dPodzn89XrmvqAj-589">
          <mxGeometry x="290" y="281" width="63.5" height="23.88" as="geometry" />
        </mxCell>
        <mxCell id="8ngV8dPodzn89XrmvqAj-591" value="" style="swimlane;startSize=0;dashed=1;" vertex="1" parent="1">
          <mxGeometry x="-310" y="120" width="290" height="580" as="geometry" />
        </mxCell>
        <mxCell id="8ngV8dPodzn89XrmvqAj-592" value="&lt;font style=&quot;font-size: 14px;&quot;&gt;Finetuning&lt;/font&gt;" style="text;html=1;strokeColor=none;fillColor=none;align=left;verticalAlign=middle;whiteSpace=wrap;rounded=0;fontStyle=1" vertex="1" parent="8ngV8dPodzn89XrmvqAj-591">
          <mxGeometry x="124.5" y="20" width="70" height="23.88" as="geometry" />
        </mxCell>
        <mxCell id="8ngV8dPodzn89XrmvqAj-593" value="" style="shape=flexArrow;endArrow=classic;html=1;rounded=0;" edge="1" parent="1">
          <mxGeometry width="50" height="50" relative="1" as="geometry">
            <mxPoint x="-650" y="460" as="sourcePoint" />
            <mxPoint x="-610" y="460" as="targetPoint" />
          </mxGeometry>
        </mxCell>
      </root>
    </mxGraphModel>
  </diagram>
</mxfile>
